<svg width="360" height="102" viewBox="0 0 360 102" version="1.1" xmlns="http://www.w3.org/2000/svg" xmlns:xlink="http://www.w3.org/1999/xlink" xmlns:figma="http://www.figma.com/figma/ns">
<title>nodejs</title>
<desc>Created using Figma</desc>
<g id="Canvas" transform="matrix(3 0 0 3 -14790 -2127)" figma:type="canvas">
<g id="nodejs" figma:type="frame">
<g id="Vector" figma:type="vector">
<use xlink:href="#path0_fill" transform="translate(5030.66 721.017)" fill="#83CD29"/>
</g>
<g id="Vector" figma:type="vector">
<use xlink:href="#path1_fill" transform="translate(5005.61 721.249)" fill="#404137"/>
</g>
<g id="Vector" figma:type="vector">
<use xlink:href="#path2_fill" transform="translate(5013.21 729.874)" fill="#83CD29"/>
</g>
<g id="Vector" figma:type="vector">
<use xlink:href="#path3_fill" transform="translate(4980.46 709)" fill="#404137"/>
</g>
<g id="Vector" figma:type="vector">
<use xlink:href="#path4_fill" transform="translate(4955.25 721.196)" fill="#83CD29"/>
</g>
<g id="Vector" figma:type="vector">
<use xlink:href="#path5_fill" transform="translate(4930 721.131)" fill="#404137"/>
</g>
</g>
</g>
<defs>
<path id="path0_fill" d="M 9.602 21.6583C 9.312 21.6583 9.024 21.5823 8.77 21.4343L 6.12 19.8663C 5.724 19.6453 5.917 19.5662 6.048 19.5212C 6.576 19.3372 6.683 19.2943 7.246 18.9763C 7.305 18.9433 7.382 18.9553 7.443 18.9913L 9.478 20.2003C 9.552 20.2413 9.657 20.2413 9.724 20.2003L 17.661 15.6192C 17.736 15.5772 17.783 15.4923 17.783 15.4043L 17.783 6.24425C 17.783 6.15425 17.736 6.07125 17.66 6.02525L 9.726 1.44825C 9.652 1.40625 9.555 1.40625 9.481 1.44825L 1.548 6.02625C 1.472 6.07125 1.423 6.15725 1.423 6.24425L 1.423 15.4043C 1.423 15.4923 1.472 15.5753 1.548 15.6163L 3.722 16.8732C 4.902 17.4622 5.625 16.7683 5.625 16.0703L 5.625 7.02525C 5.625 6.89825 5.728 6.79725 5.855 6.79725L 6.862 6.79725C 6.987 6.79725 7.091 6.89825 7.091 7.02525L 7.091 16.0703C 7.091 17.6443 6.234 18.5473 4.741 18.5473C 4.282 18.5473 3.921 18.5472 2.913 18.0512L 0.832 16.8533C 0.317 16.5553 -4.27246e-07 15.9993 -4.27246e-07 15.4053L -4.27246e-07 6.24525C -4.27246e-07 5.65025 0.317 5.09525 0.832 4.79925L 8.769 0.212251C 9.271 -0.0707486 9.938 -0.0707486 10.436 0.212251L 18.373 4.79925C 18.887 5.09625 19.206 5.65125 19.206 6.24525L 19.206 15.4053C 19.206 16.0003 18.887 16.5533 18.373 16.8533L 10.436 21.4353C 10.184 21.5823 9.897 21.6583 9.602 21.6583L 9.602 21.6583ZM 12.055 15.3473C 8.58 15.3473 7.853 13.7522 7.853 12.4152C 7.853 12.2892 7.956 12.1863 8.083 12.1863L 9.109 12.1863C 9.224 12.1863 9.319 12.2683 9.337 12.3803C 9.491 13.4253 9.954 13.9522 12.055 13.9522C 13.726 13.9522 14.438 13.5743 14.438 12.6863C 14.438 12.1743 14.236 11.7952 11.638 11.5402C 9.466 11.3252 8.123 10.8462 8.123 9.10725C 8.123 7.50625 9.473 6.55025 11.735 6.55025C 14.278 6.55025 15.536 7.43325 15.695 9.32725C 15.701 9.39125 15.678 9.45425 15.635 9.50325C 15.591 9.54825 15.531 9.57625 15.467 9.57625L 14.436 9.57625C 14.329 9.57625 14.235 9.50125 14.213 9.39725C 13.965 8.29725 13.365 7.94625 11.734 7.94625C 9.909 7.94625 9.697 8.58325 9.697 9.05825C 9.697 9.63525 9.947 9.80325 12.412 10.1293C 14.851 10.4523 16.01 10.9082 16.01 12.6232C 16.011 14.3562 14.569 15.3473 12.055 15.3473"/>
<path id="path1_fill" d="M 18.307 9.10688C 18.62 8.92388 18.813 8.58988 18.813 8.22688L 18.813 5.87288C 18.813 5.51088 18.621 5.17688 18.307 4.99388L 9.943 0.137876C 9.628 -0.0451242 9.24 -0.0461231 8.924 0.135877L 0.507999 4.99488C 0.193999 5.17688 3.05176e-06 5.51188 3.05176e-06 5.87488L 3.05176e-06 15.5909C 3.05176e-06 15.9559 0.196003 16.2939 0.514003 16.4749L 8.877 21.2399C 9.185 21.4169 9.563 21.4179 9.874 21.2459L 14.932 18.4339C 15.093 18.3439 15.193 18.1759 15.194 17.9939C 15.195 17.8099 15.097 17.6399 14.938 17.5489L 6.47 12.6889C 6.311 12.5979 6.214 12.4299 6.214 12.2489L 6.214 9.20288C 6.214 9.02088 6.311 8.85388 6.468 8.76388L 9.105 7.24388C 9.261 7.15288 9.455 7.15288 9.612 7.24388L 12.249 8.76388C 12.407 8.85488 12.504 9.02188 12.504 9.20288L 12.504 11.5989C 12.504 11.7819 12.601 11.9499 12.758 12.0399C 12.916 12.1309 13.11 12.1309 13.268 12.0389L 18.307 9.10688"/>
<path id="path2_fill" d="M 1.712 0.025499C 1.773 -0.00850098 1.847 -0.00850098 1.907 0.025499L 3.522 0.958498C 3.582 0.993498 3.619 1.0585 3.619 1.1275L 3.619 2.9925C 3.619 3.0625 3.582 3.1265 3.522 3.1615L 1.907 4.0935C 1.847 4.1285 1.772 4.1285 1.712 4.0935L 0.0980027 3.1615C 0.0370027 3.1265 3.17383e-06 3.0625 3.17383e-06 2.9925L 3.17383e-06 1.1275C 3.17383e-06 1.0585 0.0370027 0.993498 0.0980027 0.958498L 1.712 0.025499Z"/>
<path id="path3_fill" d="M 12.558 24.7798C 12.558 24.8698 12.51 24.9538 12.431 24.9998L 9.541 26.6658C 9.462 26.7118 9.365 26.7118 9.287 26.6658L 6.397 24.9998C 6.318 24.9538 6.27 24.8698 6.27 24.7798L 6.27 21.4418C 6.27 21.3518 6.319 21.2668 6.397 21.2208L 9.287 19.5528C 9.366 19.5058 9.463 19.5058 9.542 19.5528L 12.433 21.2208C 12.511 21.2668 12.559 21.3518 12.559 21.4418L 12.559 24.7798L 12.558 24.7798ZM 13.339 0.0637842C 13.182 -0.0232158 12.99 -0.0212153 12.834 0.0697847C 12.679 0.161785 12.583 0.327784 12.583 0.507784L 12.583 13.4228C 12.583 13.5488 12.515 13.6668 12.406 13.7308C 12.296 13.7938 12.16 13.7938 12.05 13.7308L 9.942 12.5158C 9.628 12.3348 9.241 12.3348 8.927 12.5158L 0.509 17.3738C 0.194 17.5558 1.52588e-06 17.8918 1.52588e-06 18.2548L 1.52588e-06 27.9738C 1.52588e-06 28.3368 0.194001 28.6718 0.508001 28.8548L 8.926 33.7158C 9.24 33.8978 9.628 33.8978 9.943 33.7158L 18.363 28.8548C 18.677 28.6718 18.871 28.3368 18.871 27.9738L 18.871 3.74678C 18.871 3.37878 18.671 3.03878 18.35 2.85878L 13.339 0.0637842"/>
<path id="path4_fill" d="M 8.923 0.136501C 9.237 -0.0454985 9.625 -0.0454985 9.939 0.136501L 18.357 4.9935C 18.671 5.1755 18.865 5.5115 18.865 5.8745L 18.865 15.5965C 18.865 15.9595 18.671 16.2955 18.357 16.4775L 9.94 21.3385C 9.626 21.5195 9.238 21.5195 8.923 21.3385L 0.508 16.4775C 0.194 16.2955 5.34058e-07 15.9595 5.34058e-07 15.5965L 5.34058e-07 5.8735C 5.34058e-07 5.5115 0.194 5.1755 0.508 4.9935L 8.923 0.136501"/>
<path id="path5_fill" d="M 18.863 5.859C 18.863 5.493 18.671 5.157 18.355 4.976L 9.94 0.133001C 9.796 0.0490013 9.637 0.00600183 9.476 1.83105e-06L 9.389 1.83105e-06C 9.229 0.00600183 9.069 0.0490013 8.925 0.133001L 0.509 4.976C 0.196 5.157 -8.7738e-08 5.493 -8.7738e-08 5.859L 0.018 18.899C 0.018 19.081 0.113 19.25 0.272 19.338C 0.428 19.432 0.621 19.432 0.777 19.338L 5.777 16.474C 6.093 16.286 6.286 15.955 6.286 15.592L 6.286 9.5C 6.286 9.136 6.478 8.801 6.793 8.619L 8.923 7.393C 9.081 7.3 9.255 7.256 9.431 7.256C 9.605 7.256 9.783 7.3 9.938 7.393L 12.066 8.619C 12.381 8.801 12.575 9.136 12.575 9.5L 12.575 15.592C 12.575 15.955 12.77 16.288 13.084 16.474L 18.084 19.338C 18.241 19.432 18.437 19.432 18.592 19.338C 18.747 19.249 18.844 19.08 18.844 18.899L 18.863 5.859Z"/>
</defs>
</svg>
