<svg width="297" height="378" viewBox="0 0 297 378" version="1.1" xmlns="http://www.w3.org/2000/svg" xmlns:xlink="http://www.w3.org/1999/xlink" xmlns:figma="http://www.figma.com/figma/ns">
<title>rails</title>
<desc>Created using Figma</desc>
<g id="Canvas" transform="matrix(3 0 0 3 -15147 -1851)" figma:type="canvas">
<g id="rails" figma:type="frame">
<g id="Vector" figma:type="vector">
<use xlink:href="#path0_fill" transform="translate(5051.37 619)" fill="#A62C39"/>
</g>
<g id="Group" figma:type="frame">
<g id="Vector" figma:type="vector">
<use xlink:href="#path1_fill" transform="translate(5111.44 619.422)" fill="url(#paint1_linear)"/>
</g>
</g>
<g id="Group" figma:type="frame">
<g id="Vector" opacity="0.668" figma:type="vector">
<use xlink:href="#path2_fill" transform="translate(5070.17 619.422)" fill="url(#paint2_radial)"/>
</g>
<g id="Vector" figma:type="vector">
<use xlink:href="#path3_fill" transform="translate(5069.73 701.959)" fill="#FFFFFF" fill-opacity="0.44"/>
</g>
</g>
<g id="Group" figma:type="frame">
<g id="Vector" figma:type="vector">
<use xlink:href="#path4_fill" transform="translate(5050 619.112)" fill="#000000" fill-opacity="0.362"/>
</g>
<g id="Vector" opacity="0.5" figma:type="vector">
<use xlink:href="#path5_fill" transform="translate(5072.65 693.891)" fill="#83222D"/>
</g>
</g>
<g id="Group" figma:type="frame">
<g id="Vector" figma:type="vector">
<use xlink:href="#path6_fill" transform="translate(5060.54 712.423)" fill="#FFFFFF"/>
</g>
<g id="Vector" figma:type="vector">
<use xlink:href="#path7_fill" transform="translate(5079.56 712.496)" fill="#FFFFFF"/>
</g>
<g id="Vector" figma:type="vector">
<use xlink:href="#path8_fill" transform="translate(5098.64 712.508)" fill="#FFFFFF"/>
</g>
<g id="Vector" figma:type="vector">
<use xlink:href="#path9_fill" transform="translate(5108.8 712.664)" fill="#FFFFFF"/>
</g>
<g id="Vector" figma:type="vector">
<use xlink:href="#path10_fill" transform="translate(5123.15 712.509)" fill="#FFFFFF"/>
</g>
</g>
<g id="Group" figma:type="frame">
<g id="Vector" figma:type="vector">
<use xlink:href="#path11_fill" transform="translate(5064.67 629.086)" fill="#FFFFFF"/>
</g>
<g id="Vector" figma:type="vector">
<use xlink:href="#path12_fill" transform="translate(5055.74 686.445)" fill="#FFFFFF"/>
</g>
<g id="Vector" figma:type="vector">
<use xlink:href="#path13_fill" transform="translate(5062.1 660.535)" fill="#FFFFFF"/>
</g>
<g id="Vector" figma:type="vector">
<use xlink:href="#path14_fill" transform="translate(5073.89 640.056)" fill="#FFFFFF"/>
</g>
<g id="Vector" figma:type="vector">
<use xlink:href="#path15_fill" transform="translate(5090.49 626.715)" fill="#FFFFFF"/>
</g>
<g id="Vector" figma:type="vector">
<use xlink:href="#path16_fill" transform="translate(5108.65 624.232)" fill="#FFFFFF"/>
</g>
<g id="Vector" figma:type="vector">
<use xlink:href="#path17_fill" transform="translate(5130.06 629.041)" fill="#FFFFFF"/>
</g>
<g id="Vector" figma:type="vector">
<use xlink:href="#path18_fill" transform="translate(5129.28 640.987)" fill="#FFFFFF"/>
</g>
<g id="Vector" figma:type="vector">
<use xlink:href="#path19_fill" transform="translate(5115.94 641.918)" fill="#FFFFFF"/>
</g>
<g id="Vector" figma:type="vector">
<use xlink:href="#path20_fill" transform="translate(5106.32 647.813)" fill="#FFFFFF"/>
</g>
<g id="Vector" figma:type="vector">
<use xlink:href="#path21_fill" transform="translate(5101.35 660.691)" fill="#FFFFFF"/>
</g>
<g id="Vector" figma:type="vector">
<use xlink:href="#path22_fill" transform="translate(5100.89 674.808)" fill="#FFFFFF"/>
</g>
<g id="Vector" figma:type="vector">
<use xlink:href="#path23_fill" transform="translate(5103.06 694.046)" fill="#FFFFFF"/>
</g>
</g>
<g id="Vector" figma:type="vector">
<use xlink:href="#path24_stroke" transform="translate(5051.37 619)" fill="#5E000E"/>
</g>
</g>
</g>
<defs>
<linearGradient id="paint1_linear" x1="0" y1="0" x2="1" y2="0" gradientUnits="userSpaceOnUse" gradientTransform="matrix(22.512 -11.792 -11.792 -22.512 15.957 58.41)">
<stop offset="0" stop-color="#FFFFFF"/>
<stop offset="1" stop-color="#C0815E"/>
</linearGradient>
<radialGradient id="paint2_radial" cx="0.5" cy="0.5" r="0.5" gradientUnits="userSpaceOnUse" gradientTransform="matrix(76.812 0 0 -121.517 -0.396 120.607)">
<stop offset="0" stop-color="#FFFFFF"/>
<stop offset="1" stop-color="#A94436"/>
</radialGradient>
<path id="path0_fill" d="M 0.177425 122.055C 0.177425 122.055 0.365425 92.517 0.365425 62.491C 0.365425 4.332 -4.53557 7.24792e-08 21.5594 7.24792e-08L 94.1944 7.24792e-08L 94.1944 83.889C 94.1944 111.504 99.3564 122.322 70.3354 122.322C 41.3144 122.323 0.177425 122.055 0.177425 122.055L 0.177425 122.055Z"/>
<path id="path1_fill" d="M -3.17383e-06 10.55C -3.17383e-06 10.55 4.65499 11.482 8.68799 18.307C 12.722 25.133 34.132 78.193 34.132 78.193L 34.132 35.062L 14.274 2.792L 19.859 9.61899L 30.409 0.93L 16.756 7.08008e-06L -3.17383e-06 10.55L -3.17383e-06 10.55Z"/>
<path id="path2_fill" d="M -8.54492e-06 0.310005C -8.54492e-06 0.310005 30.719 20.789 45.613 24.823C 60.507 28.858 76.021 33.201 76.021 33.201L 40.648 120.081L 55.852 120.702L 75.712 71.676L 75.09 7.08008e-06L -8.54492e-06 0.310005L -8.54492e-06 0.310005Z"/>
<path id="path3_fill" d="M 28.9825 9.30801L 60.9385 40.041L 1.36747 38.785C 1.36747 38.785 -0.493531 19.858 0.126469 9.92898L 3.84946 2.49023e-05L 28.9825 9.30801Z"/>
<path id="path4_fill" d="M 78.193 122.254L 49.337 92.466L 22.962 82.537L 2.483 36.925L 24.204 0.621L 9.62 6.10352e-08L 3.724 5.586L 1.552 9.93L 1.98364e-07 122.875L 78.193 122.254L 78.193 122.254Z"/>
<path id="path5_fill" d="M 73.228 -6.10352e-07C 73.228 -6.10352e-07 44.061 9.309 26.685 17.997C 9.309 26.685 -1.83105e-06 47.784 -1.83105e-06 47.784C -1.83105e-06 47.784 37.234 45.923 51.197 46.543C 65.16 47.164 71.676 47.164 72.917 27.616C 74.158 8.068 73.228 -6.10352e-07 73.228 -6.10352e-07Z"/>
<path id="path6_fill" d="M -5.34058e-07 -2.92969e-06L -5.34058e-07 18.326L 4.674 18.326L 4.674 13.553L 8.928 17.807L 16.1 17.807L 10.412 12.119C 10.412 12.119 14.505 12.052 14.814 6.135C 14.814 0.704999 10.717 0.000996521 5.984 0.000996521L -5.34058e-07 0.000996521L -5.34058e-07 -2.92969e-06ZM 4.897 4.971L 8.928 4.971L 8.928 8.236L 4.897 8.236L 4.897 4.971Z"/>
<path id="path7_fill" d="M 6.108 0.000585415C 3.549 -0.0144146 -1.43433e-06 0.223584 -1.43433e-06 5.04558L -1.43433e-06 17.7826L 4.797 17.7826L 4.797 14.6666L 9.447 14.6666L 9.447 17.7086L 14.269 17.7086L 14.269 4.35458C 14.269 0.165582 9.615 0.00158487 7.122 0.00158487L 6.108 0.000585415ZM 4.871 4.60058L 9.372 4.60058L 9.372 9.62158L 4.871 9.62158L 4.871 4.60058Z"/>
<path id="path8_fill" d="M -1.77002e-06 3.78418e-06L 4.964 3.78418e-06L 4.964 17.531L -1.77002e-06 17.531L -1.77002e-06 3.78418e-06Z"/>
<path id="path9_fill" d="M 1.34277e-06 0.0779973L 1.34277e-06 17.609L 11.947 17.609L 11.947 12.955L 4.888 12.955L 4.888 2.01416e-06L 1.34277e-06 0.0779973Z"/>
<path id="path10_fill" d="M 13.42 0.0770086L 13.42 4.80901L 5.43 4.80901L 5.43 6.51601L 8.843 6.51601C 10.628 6.51601 14.351 6.43901 14.351 12.024C 14.351 17.609 11.79 17.92 6.593 17.92L 0.309997 17.92L 0.309997 13.653L 7.524 13.653C 9.696 13.653 9.816 12.945 9.816 12.329C 9.816 11.714 8.706 11.427 6.447 11.427C 4.188 11.427 -7.32422e-07 10.317 -7.32422e-07 5.97301C -7.32422e-07 1.62901 2.172 1.27687e-05 6.516 1.27687e-05C 10.861 -0.000987231 13.42 0.0770086 13.42 0.0770086Z"/>
<path id="path11_fill" d="M 0.221534 78.1477L 41.4905 78.1477C 41.4905 78.1477 32.3365 57.3587 34.6645 38.2747C 36.9905 19.1927 52.0405 10.5037 60.5735 9.57266C 69.1065 8.64166 73.7605 13.9167 73.7605 13.9167L 75.6215 11.1247C 75.6215 11.1247 63.3655 -1.28734 47.8505 0.109661C 32.3365 1.50466 21.6315 11.7447 14.9605 24.1557C 8.28954 36.5677 4.41053 45.2567 1.77253 58.2877C -0.864465 71.3207 0.221534 78.1477 0.221534 78.1477L 0.221534 78.1477Z"/>
<path id="path12_fill" d="M 0.932001 2.44141e-07L 8.998 0.620003L 7.602 8.688L -5.79834e-07 7.757L 0.932001 2.44141e-07L 0.932001 2.44141e-07Z"/>
<path id="path13_fill" d="M 7.292 8.843L 9.464 2.793L 2.327 3.96729e-07L -5.18799e-07 6.516L 7.292 8.843Z"/>
<path id="path14_fill" d="M 5.584 8.533L 9.773 3.568L 4.343 3.05176e-07L -7.01904e-07 4.81L 5.584 8.533L 5.584 8.533Z"/>
<path id="path15_fill" d="M -1.67847e-06 2.637L 3.724 7.136L 8.844 4.189L 5.12 -2.5177e-07L -1.67847e-06 2.637L -1.67847e-06 2.637Z"/>
<path id="path16_fill" d="M 2.01416e-06 -5.34058e-08L 0.930002 4.499L 7.291 4.344L 6.671 0.31L 2.01416e-06 -5.34058e-08Z"/>
<path id="path17_fill" d="M 0.154997 -3.8147e-08L -1.40381e-06 2.792L 4.343 5.12L 5.274 3.724L 0.154997 -3.8147e-08Z"/>
<path id="path18_fill" d="M -2.92969e-06 6.10352e-08L -2.92969e-06 2.327L 4.189 2.792L 4.189 0.931L -2.92969e-06 6.10352e-08Z"/>
<path id="path19_fill" d="M 2.38037e-06 1.085L 2.017 4.809L 4.965 2.482L 4.344 -1.83105e-07L 2.38037e-06 1.085L 2.38037e-06 1.085Z"/>
<path id="path20_fill" d="M 3.258 2.74658e-07L 6.361 4.655L 4.499 7.912L -9.15527e-07 2.947L 3.258 2.74658e-07Z"/>
<path id="path21_fill" d="M 2.017 -1.37329e-06L 2.74658e-06 4.033L 5.275 8.533L 6.516 3.412L 2.017 -1.37329e-06L 2.017 -1.37329e-06Z"/>
<path id="path22_fill" d="M 0.309996 -7.93457e-07L -1.2207e-06 5.43L 6.516 8.222L 6.205 3.103L 0.309996 -7.93457e-07L 0.309996 -7.93457e-07Z"/>
<path id="path23_fill" d="M 3.479e-06 -1.83105e-06L 1.552 5.586L 9.775 6.051L 6.826 -1.83105e-06L 3.479e-06 -1.83105e-06L 3.479e-06 -1.83105e-06Z"/>
<path id="path24_stroke" d="M 94.1944 7.24792e-08L 95.6944 7.24792e-08L 95.6944 -1.5L 94.1944 -1.5L 94.1944 7.24792e-08ZM 70.3354 122.322L 70.3354 120.822L 70.3354 120.822L 70.3354 122.322ZM 0.177425 122.055C 1.67739 122.065 1.6774 122.064 1.6774 122.064C 1.6774 122.064 1.6774 122.064 1.6774 122.063C 1.67741 122.062 1.67742 122.061 1.67743 122.059C 1.67745 122.056 1.67749 122.05 1.67753 122.043C 1.67762 122.029 1.67776 122.007 1.67793 121.979C 1.67829 121.922 1.67882 121.837 1.67951 121.725C 1.68089 121.501 1.68291 121.169 1.68548 120.736C 1.69062 119.87 1.69796 118.598 1.70678 116.979C 1.7244 113.74 1.74791 109.109 1.77141 103.539C 1.81841 92.4005 1.86542 77.5064 1.86542 62.491L -1.13458 62.491C -1.13457 77.5016 -1.18157 92.3895 -1.22856 103.526C -1.25206 109.095 -1.27555 113.724 -1.29318 116.962C -1.30199 118.581 -1.30933 119.852 -1.31447 120.718C -1.31704 121.151 -1.31906 121.483 -1.32044 121.707C -1.32112 121.818 -1.32165 121.903 -1.32201 121.96C -1.32218 121.988 -1.32232 122.01 -1.32241 122.024C -1.32245 122.031 -1.32249 122.037 -1.32251 122.04C -1.32252 122.042 -1.32253 122.043 -1.32254 122.044C -1.32254 122.045 -1.32254 122.045 -1.32254 122.045C -1.32254 122.045 -1.32254 122.045 0.177425 122.055ZM 1.86542 62.491C 1.86528 47.9307 1.5589 36.7506 1.50735 28.1819C 1.45543 19.5661 1.66681 13.7584 2.63411 9.7912C 3.56784 5.96165 5.14496 4.06428 7.80758 2.97368C 10.7001 1.78892 14.9861 1.5 21.5594 1.5L 21.5594 -1.5C 15.0853 -1.5 10.1982 -1.24742 6.67049 0.197534C 2.91283 1.73665 0.822385 4.55722 -0.280507 9.08055C -1.34983 13.4662 -1.54414 19.6463 -1.49259 28.2C -1.44068 36.8008 -1.13443 47.9718 -1.13458 62.491L 1.86542 62.491ZM 21.5594 1.5L 94.1944 1.5L 94.1944 -1.5L 21.5594 -1.5L 21.5594 1.5ZM 92.6944 7.24792e-08L 92.6944 83.889L 95.6944 83.889L 95.6944 7.24792e-08L 92.6944 7.24792e-08ZM 92.6944 83.889C 92.6947 90.8241 92.9396 96.6679 92.8732 101.524C 92.8069 106.403 92.4252 110.099 91.292 112.898C 90.2017 115.592 88.3901 117.515 85.2158 118.812C 81.9497 120.146 77.2207 120.822 70.3354 120.822L 70.3354 123.822C 77.3402 123.822 82.5385 123.146 86.3503 121.589C 90.2539 119.994 92.6709 117.487 94.0728 114.024C 95.4319 110.667 95.8062 106.481 95.8729 101.565C 95.9393 96.6255 95.6941 90.7614 95.6944 83.889L 92.6944 83.889ZM 70.3354 120.822C 56.4482 120.823 38.9123 120.756 24.8461 120.689C 17.8131 120.655 11.6484 120.622 7.2416 120.597C 5.03827 120.584 3.27462 120.574 2.06167 120.567C 1.45523 120.563 0.986546 120.56 0.669414 120.558C 0.510865 120.557 0.39024 120.556 0.309226 120.556C 0.268728 120.556 0.238149 120.555 0.217683 120.555C 0.207453 120.555 0.19976 120.555 0.194619 120.555C 0.19205 120.555 0.190123 120.555 0.188835 120.555C 0.188192 120.555 0.187711 120.555 0.187389 120.555C 0.187069 120.555 0.186911 120.555 0.177425 122.055C 0.167939 123.555 0.168104 123.555 0.16843 123.555C 0.168754 123.555 0.169241 123.555 0.169888 123.555C 0.17118 123.555 0.173119 123.555 0.175696 123.555C 0.180846 123.555 0.188564 123.555 0.19881 123.555C 0.219293 123.555 0.249922 123.555 0.290454 123.556C 0.371502 123.556 0.492231 123.557 0.65085 123.558C 0.968054 123.56 1.43696 123.563 2.04355 123.566C 3.25666 123.574 5.02083 123.584 7.2245 123.597C 11.6317 123.622 17.7978 123.655 24.8318 123.689C 38.8995 123.756 56.4426 123.822 70.3355 123.822L 70.3354 120.822Z"/>
</defs>
</svg>
