<svg width="360" height="366" viewBox="0 0 360 366" version="1.1" xmlns="http://www.w3.org/2000/svg" xmlns:xlink="http://www.w3.org/1999/xlink" xmlns:figma="http://www.figma.com/figma/ns">
<title>mongodb</title>
<desc>Created using Figma</desc>
<g id="Canvas" transform="matrix(3 0 0 3 -14058 -1863)" figma:type="canvas">
<g id="mongodb" figma:type="frame">
<g id="Vector" figma:type="vector">
<use xlink:href="#path0_fill" transform="translate(4769.13 716.866)" fill="#94795D"/>
</g>
<g id="Vector" figma:type="vector">
<use xlink:href="#path1_fill" transform="translate(4686 722.939)" fill="#50382B"/>
</g>
<g id="Vector" figma:type="vector">
<use xlink:href="#path2_fill" transform="translate(4740.44 722.97)" fill="#4F382B"/>
</g>
<g id="Vector" figma:type="vector">
<use xlink:href="#path3_fill" transform="translate(4724.54 722.856)" fill="#4F372B"/>
</g>
<g id="Vector" figma:type="vector">
<use xlink:href="#path4_fill" transform="translate(4754.33 722.945)" fill="#4F382B"/>
</g>
<g id="Vector" figma:type="vector">
<use xlink:href="#path5_fill" transform="translate(4710.26 722.94)" fill="#4F372B"/>
</g>
<g id="Vector" figma:type="vector">
<use xlink:href="#path6_fill" transform="translate(4746.66 651.403)" fill="#439934"/>
</g>
<g id="Vector" figma:type="vector">
<use xlink:href="#path7_fill" transform="translate(4724.94 650.071)" fill="#45A538"/>
</g>
<g id="Vector" figma:type="vector">
<use xlink:href="#path8_fill" transform="translate(4745.87 621.999)" fill="#46A037"/>
</g>
<g id="Vector" figma:type="vector">
<use xlink:href="#path9_fill" transform="translate(4746.12 676.534)" fill="#409433"/>
</g>
<g id="Vector" figma:type="vector">
<use xlink:href="#path10_fill" transform="translate(4729.95 636.44)" fill="#4FAA41"/>
</g>
<g id="Vector" figma:type="vector">
<use xlink:href="#path11_fill" transform="translate(4727.45 643.317)" fill="#4AA73C"/>
</g>
<g id="Vector" figma:type="vector">
<use xlink:href="#path12_fill" transform="translate(4733.69 630.356)" fill="#57AE47"/>
</g>
<g id="Vector" figma:type="vector">
<use xlink:href="#path13_fill" transform="translate(4738.31 621)" fill="#60B24F"/>
</g>
<g id="Vector" figma:type="vector">
<use xlink:href="#path14_fill" transform="translate(4744.14 691.391)" fill="#A9AA88"/>
</g>
<g id="Vector" figma:type="vector">
<use xlink:href="#path15_fill" transform="translate(4744.71 698.917)" fill="#B6B598"/>
</g>
<g id="Vector" figma:type="vector">
<use xlink:href="#path16_fill" transform="translate(4745.24 701.02)" fill="#C2C1A7"/>
</g>
<g id="Vector" figma:type="vector">
<use xlink:href="#path17_fill" transform="translate(4745.48 704.335)" fill="#CECDB7"/>
</g>
<g id="Vector" figma:type="vector">
<use xlink:href="#path18_fill" transform="translate(4745.85 708.572)" fill="#DBDAC7"/>
</g>
<g id="Vector" figma:type="vector">
<use xlink:href="#path19_fill" transform="translate(4746.93 711.352)" fill="#EBE9DC"/>
</g>
<g id="Vector" figma:type="vector">
<use xlink:href="#path20_fill" transform="translate(4748.48 701.811)" fill="#CECDB7"/>
</g>
<g id="Vector" figma:type="vector">
<use xlink:href="#path21_fill" transform="translate(4746.01 690.973)" fill="#4FAA41"/>
</g>
</g>
</g>
<defs>
<path id="path0_fill" fill-rule="evenodd" d="M 2.68555e-06 1.13242C 0.169003 0.807417 0.330997 0.52042 0.468997 0.22342C 0.555997 0.0334201 0.69 -0.00457952 0.879 0.000420479C 2.012 0.0324205 3.145 0.0674158 4.279 0.0784158C 5.242 0.0884158 6.207 0.0704186 7.171 0.0594186C 8.257 0.0464186 9.343 -0.0105829 10.428 0.0204171C 11.873 0.0624171 13.281 0.345419 14.588 0.988419C 16.149 1.75742 17.33 2.92841 18.135 4.47141C 18.649 5.45641 18.947 6.50141 19.066 7.61141C 19.238 9.21941 19.125 10.7904 18.615 12.3284C 17.983 14.2344 16.783 15.6934 15.116 16.7864C 13.833 17.6274 12.426 18.1244 10.918 18.4084C 9.322 18.7094 7.721 18.6124 6.12 18.6174C 4.364 18.6244 2.609 18.5864 0.853 18.5664C 0.545999 18.5634 0.502003 18.5054 0.583003 18.2124L 0.658 17.9424C 0.829 17.4044 0.920998 17.3804 1.467 17.2904C 1.845 17.2294 2.237 17.0874 2.554 16.8774C 2.738 16.7554 2.814 16.4374 2.886 16.1924C 2.948 15.9784 2.951 15.7434 2.953 15.5174C 2.978 12.0924 3.004 8.66842 3.018 5.24542C 3.021 4.38042 3.001 3.51342 2.953 2.64942C 2.919 2.04441 2.596 1.63042 1.876 1.48742C 1.316 1.37642 0.751998 1.29041 0.188998 1.19141L 2.68555e-06 1.13242L 2.68555e-06 1.13242ZM 16.076 9.42542C 16 8.74342 15.963 8.05542 15.841 7.38342C 15.549 5.77042 14.843 4.36542 13.603 3.26442C 11.598 1.48542 9.184 1.21142 6.654 1.42342C 6.078 1.47142 5.954 1.66842 5.945 2.26042C 5.931 3.10042 5.917 3.94042 5.916 4.78042C 5.912 7.44442 5.912 10.1084 5.916 12.7724C 5.917 13.5304 5.925 14.2884 5.947 15.0444C 5.971 15.8184 6.252 16.4734 7.01 16.7734C 8.205 17.2464 9.462 17.3024 10.716 17.1094C 12.719 16.8024 14.12 15.6354 15.06 13.8864C 15.804 12.4984 16.014 10.9834 16.076 9.42542L 16.076 9.42542ZM 20.945 18.4964C 20.921 18.0814 21.091 17.7384 21.301 17.4234C 21.358 17.3384 21.554 17.3424 21.689 17.3154L 22.835 17.0884C 23.24 17.0024 23.453 16.7304 23.51 16.3334C 23.548 16.0714 23.584 15.8064 23.587 15.5414C 23.612 13.4444 23.636 11.3474 23.646 9.25042C 23.656 7.15042 23.648 5.05042 23.648 2.95042L 23.639 2.54942C 23.598 1.87442 23.272 1.52442 22.602 1.42542L 21.149 1.20442C 20.97 1.18042 20.905 1.09442 20.97 0.935418C 21.082 0.664418 21.189 0.38342 21.347 0.13942C 21.406 0.0494204 21.605 0.0144188 21.739 0.0174188C 22.433 0.0274188 23.127 0.0794158 23.821 0.0784158L 29.862 0.0424203C 31.026 0.0414203 32.15 0.244415 33.194 0.801415C 34.343 1.41342 34.986 2.36041 35.17 3.65041C 35.362 5.00541 34.951 6.14741 33.961 7.05441C 33.554 7.42841 33.027 7.67242 32.555 7.97642L 32.401 8.07242C 32.839 8.23342 33.256 8.37241 33.662 8.53841C 34.85 9.02541 35.795 9.78642 36.295 11.0014C 36.69 11.9604 36.69 12.9604 36.456 13.9544C 36.092 15.5104 35.067 16.5454 33.734 17.3284C 32.483 18.0634 31.129 18.4914 29.687 18.5634C 28.357 18.6304 27.021 18.6054 25.688 18.6204L 24.916 18.6244C 23.632 18.5954 22.347 18.5624 21.062 18.5284L 20.945 18.4964L 20.945 18.4964ZM 26.482 12.4074L 26.495 12.4074C 26.495 13.0654 26.486 13.7234 26.498 14.3814C 26.506 14.8074 26.491 15.2454 26.583 15.6554C 26.721 16.2684 27.001 16.8214 27.689 16.9974C 28.618 17.2364 29.567 17.2844 30.507 17.1214C 31.684 16.9164 32.623 16.3264 33.138 15.2054C 33.52 14.3724 33.577 13.4894 33.446 12.5874C 33.272 11.3994 32.641 10.5374 31.592 9.97241C 30.904 9.60141 30.17 9.37441 29.388 9.34441C 28.512 9.31141 27.635 9.30942 26.759 9.28242C 26.513 9.27542 26.479 9.40042 26.48 9.60242C 26.485 10.5364 26.482 11.4714 26.482 12.4074L 26.482 12.4074ZM 28.347 7.93242C 28.826 7.90842 29.368 7.90141 29.907 7.84741C 30.939 7.74441 31.666 7.22542 32.045 6.23842C 32.238 5.73742 32.23 5.22142 32.235 4.70042C 32.25 3.34342 31.458 2.23142 30.169 1.77142C 29.174 1.41642 28.148 1.41042 27.116 1.43842C 26.698 1.44942 26.511 1.63241 26.505 2.05341L 26.443 7.54242C 26.44 7.76042 26.534 7.85441 26.746 7.86141L 28.347 7.93242L 28.347 7.93242Z"/>
<path id="path1_fill" fill-rule="evenodd" d="M 6.41652 11.368L 6.34352 12.312C 5.66352 12.312 5.03652 12.307 4.40952 12.314C 3.22852 12.326 2.04752 12.345 0.865521 12.362L 0.751521 12.369C 0.582521 12.349 0.275521 12.349 0.267521 12.299C 0.217521 12.018 0.233521 11.723 0.246521 11.432C 0.247521 11.399 0.362521 11.357 0.429521 11.341L 1.34852 11.136C 1.92152 10.987 2.12352 10.74 2.15052 10.148C 2.18152 9.481 2.21252 8.813 2.21552 8.146C 2.22452 6.504 2.21452 4.864 2.22152 3.222C 2.22252 2.838 2.08952 2.552 1.73152 2.396C 1.30552 2.208 0.877521 2.024 0.446521 1.85C 0.242521 1.768 -0.0224794 1.723 0.00152064 1.449C 0.0255206 1.17 0.282521 1.097 0.524521 1.042C 1.52652 0.813002 2.52952 0.590002 3.52852 0.346002C 3.85052 0.267002 4.15852 0.134002 4.54352 1.83105e-06C 4.56352 0.208002 4.60052 0.405998 4.59652 0.603998L 4.53752 1.545C 4.53652 1.651 4.59152 1.793 4.67052 1.852C 4.71852 1.889 4.87952 1.822 4.95952 1.76C 5.81352 1.11 6.71752 0.549002 7.74852 0.222002C 9.34552 -0.284998 10.7165 0.184998 11.6765 1.562C 12.0145 2.047 12.0155 2.047 12.4845 1.708C 13.2895 1.123 14.1315 0.607 15.0735 0.267C 17.1415 -0.48 19.1285 0.467997 19.8475 2.551C 20.1095 3.307 20.2095 4.088 20.2075 4.886L 20.1885 10.184C 20.1875 10.621 20.3325 10.87 20.7485 11.006C 21.2155 11.159 21.6995 11.264 22.2255 11.402L 22.1035 12.313C 21.5055 12.313 20.9555 12.309 20.4055 12.314C 19.0615 12.326 17.7175 12.333 16.3745 12.364C 16.1405 12.37 16.0795 12.312 16.0675 12.093C 16.0285 11.392 16.0225 11.393 16.6825 11.235L 16.9045 11.178C 17.5495 11.002 17.7645 10.804 17.7695 10.15C 17.7845 8.272 17.8235 6.389 17.7285 4.515C 17.6295 2.571 16.0865 1.536 14.2025 2.034C 13.5875 2.196 13.0305 2.48 12.5125 2.848C 12.3375 2.973 12.3045 3.117 12.3185 3.336C 12.3715 4.164 12.4045 4.993 12.4115 5.822C 12.4235 7.273 12.4055 8.724 12.4115 10.176C 12.4135 10.764 12.6145 10.989 13.1955 11.125L 14.0585 11.324L 14.2185 11.36C 14.2305 11.636 14.2415 11.912 14.2285 12.188C 14.2205 12.361 14.0865 12.376 13.9365 12.373C 13.0975 12.352 12.2575 12.324 11.4185 12.326C 10.3975 12.328 9.37752 12.357 8.35752 12.375L 8.11752 12.375C 8.11752 12.082 8.10352 11.802 8.12752 11.523C 8.13252 11.456 8.25052 11.362 8.33152 11.341L 9.33752 11.128C 9.76452 11.023 9.96852 10.804 9.99252 10.37C 10.1065 8.36 10.1885 6.349 9.99952 4.34C 9.96252 3.95 9.83552 3.554 9.67352 3.195C 9.15852 2.057 7.99952 1.582 6.66252 1.924C 6.02752 2.086 5.45452 2.377 4.91252 2.744C 4.65652 2.918 4.53452 3.148 4.53452 3.439C 4.53452 5.444 4.54152 7.449 4.54752 9.453L 4.55852 10.226C 4.57052 10.765 4.79952 11.049 5.33452 11.165C 5.67852 11.243 6.02652 11.296 6.41652 11.368L 6.41652 11.368Z"/>
<path id="path2_fill" fill-rule="evenodd" d="M 12.4309 0.174136C 12.5859 0.928136 12.5829 1.60614 12.0289 2.12014C 11.4789 2.63114 10.7829 2.45913 10.1039 2.34513C 10.1669 2.70313 10.2369 3.00714 10.2709 3.31514C 10.5179 5.60414 9.53287 7.30313 7.40987 8.27413C 6.60787 8.64013 5.75687 8.77613 4.88787 8.84613C 4.45587 8.88013 4.07787 9.21014 4.03687 9.56514C 3.99487 9.92514 4.22087 10.2951 4.67287 10.4031C 5.20587 10.5301 5.76187 10.5661 6.30887 10.6291C 7.48287 10.7631 8.66987 10.8241 9.82987 11.0341C 11.5839 11.3501 12.5629 12.8811 12.2539 14.6431C 11.9789 16.2111 11.0709 17.3521 9.80487 18.2271C 7.67187 19.7051 5.33187 20.1371 2.83987 19.3831C 1.41487 18.9511 0.409871 18.0141 0.062871 16.4981C -0.111129 15.7391 0.0738717 15.0521 0.644872 14.5371C 1.32387 13.9271 2.06287 13.3831 2.77387 12.8071L 3.00387 12.5761L 2.73987 12.3911C 2.01487 12.0471 1.43487 11.5761 1.20987 10.7581C 1.13287 10.4811 1.21287 10.2991 1.44787 10.1571C 1.84787 9.91613 2.24587 9.67113 2.64087 9.42213C 2.82687 9.30613 3.01087 9.18613 3.18387 9.05213C 3.41987 8.87213 3.39887 8.73814 3.11687 8.63414C 2.46087 8.39214 1.87787 8.04113 1.42587 7.50113C 0.67087 6.60013 0.456872 5.52713 0.518872 4.39413C 0.615872 2.62413 1.57687 1.45813 3.13887 0.708133C 4.99587 -0.182867 6.85887 -0.238869 8.75187 0.573131C 9.45187 0.873131 10.1899 0.937135 10.9409 0.885135C 11.5019 0.845135 11.9919 0.633136 12.4309 0.174136L 12.4309 0.174136ZM 5.58787 12.8551C 4.19387 12.8431 3.75687 13.0151 2.93887 13.8481C 2.02287 14.7821 2.02787 16.0771 2.94187 17.0151C 3.63587 17.7261 4.50188 18.0591 5.46488 18.1591C 6.58988 18.2751 7.69787 18.2281 8.71987 17.6651C 9.80987 17.0621 10.3519 15.9421 10.1069 14.8141C 9.90387 13.8831 9.21787 13.4571 8.38287 13.2121C 7.43287 12.9341 6.45087 12.8811 5.58787 12.8551L 5.58787 12.8551ZM 2.84987 3.94713C 2.90087 4.33413 2.92187 4.72614 3.00787 5.10514C 3.23087 6.08714 3.65787 6.95013 4.63487 7.38713C 5.78187 7.90213 7.24687 7.68113 7.74887 6.07113C 8.09287 4.96813 8.05087 3.87313 7.63587 2.79713C 7.45087 2.31713 7.15287 1.91113 6.72587 1.61313C 5.72987 0.918132 3.93287 0.826132 3.20087 2.36213C 2.96287 2.86113 2.86987 3.39213 2.84987 3.94713L 2.84987 3.94713Z"/>
<path id="path3_fill" fill-rule="evenodd" d="M 4.6841 0.0411097C 4.7211 0.21211 4.79511 0.406107 4.79711 0.601107C 4.80011 0.972107 4.76011 1.34311 4.73911 1.71411L 4.73911 2.0361L 5.05311 1.79611C 5.91311 1.08811 6.83711 0.485105 7.91311 0.160105C 9.85511 -0.424895 11.7951 0.638107 12.4281 2.61611C 12.6681 3.36811 12.7631 4.14111 12.7721 4.92711C 12.7921 6.67311 12.8041 8.41911 12.8221 10.1651C 12.8281 10.7921 12.9001 10.9041 13.4931 11.0851C 13.8291 11.1881 14.1761 11.2601 14.5231 11.3141C 14.7141 11.3441 14.7961 11.4191 14.7861 11.6061L 14.7881 11.7781C 14.7811 12.5011 14.7311 12.5341 14.0301 12.5321C 12.3521 12.5291 10.6751 12.5391 8.9971 12.5531C 8.4971 12.5571 8.49611 12.5721 8.44611 12.0781L 8.43611 11.7941C 8.46711 11.3681 8.47711 11.3721 8.89611 11.3101C 9.17811 11.2681 9.4581 11.2031 9.7331 11.1311C 10.0161 11.0581 10.1521 10.8491 10.1901 10.5691C 10.2091 10.4271 10.2341 10.2851 10.2331 10.1431C 10.2091 8.23511 10.2401 6.32511 10.1361 4.42011C 10.0521 2.87911 8.87611 1.96111 7.32911 2.06611C 6.57011 2.11911 5.88411 2.37211 5.25811 2.80911C 4.84511 3.09811 4.76211 3.51511 4.76411 3.96411C 4.77211 5.74811 4.78911 7.53211 4.80811 9.31711C 4.81211 9.70811 4.82311 10.0991 4.86011 10.4871C 4.89911 10.9111 5.04811 11.0821 5.46411 11.1741C 5.86211 11.2621 6.26811 11.3131 6.69311 11.3841L 6.72911 11.7121C 6.74311 12.4771 6.6631 12.5341 5.9201 12.5311C 4.1851 12.5241 2.45011 12.5351 0.716107 12.5541C 0.443107 12.5581 0.327107 12.4721 0.334107 12.2061L 0.330105 12.0921C 0.285105 11.4031 0.305108 11.3771 0.957108 11.2651L 1.26511 11.2031C 1.97111 11.0441 2.15211 10.8561 2.16211 10.1391C 2.19511 7.86811 2.20711 5.59811 2.23011 3.32711C 2.23311 3.00111 2.11011 2.74811 1.80611 2.61311C 1.38011 2.42511 0.950108 2.24611 0.519108 2.06911C 0.281108 1.97111 0.00910694 1.90911 0.000106936 1.58011C -0.00589306 1.34811 0.242108 1.14311 0.581108 1.07411C 1.26211 0.936107 1.9491 0.82111 2.6221 0.65211C 3.2921 0.48511 3.9501 0.26111 4.6841 0.0411097Z"/>
<path id="path4_fill" fill-rule="evenodd" d="M 12.4134 5.88429C 12.3814 8.00529 11.8304 9.72029 10.3304 11.0073C 8.43036 12.6403 5.46637 13.1953 3.04337 11.9743C 2.00937 11.4533 1.24936 10.6543 0.754365 9.61729C -0.00463504 8.02229 -0.194636 6.34528 0.201364 4.62728C 0.593364 2.92828 1.62236 1.69728 3.16236 0.900285C 4.74636 0.0812845 6.41436 -0.238715 8.17336 0.191285C 10.3984 0.734285 11.9974 2.54828 12.3154 4.85828C 12.3724 5.26328 12.3944 5.67329 12.4134 5.88429L 12.4134 5.88429ZM 9.83637 7.03329L 9.75037 7.02329C 9.75037 6.82329 9.76136 6.62329 9.74836 6.42329C 9.67536 5.17729 9.39536 3.99028 8.67336 2.94728C 7.98836 1.95928 7.05536 1.37628 5.84136 1.29128C 4.48236 1.19528 3.34036 1.95529 2.93936 3.34329C 2.33736 5.42729 2.54137 7.45829 3.59937 9.36729C 4.06037 10.1993 4.74336 10.8133 5.65836 11.1363C 7.45136 11.7673 9.04136 10.9503 9.50836 9.11428C 9.68036 8.43628 9.73037 7.72729 9.83637 7.03329Z"/>
<path id="path5_fill" fill-rule="evenodd" d="M 12.4282 6.05329C 12.3912 7.57529 12.0322 8.98229 11.0922 10.2053C 10.0852 11.5153 8.70115 12.2153 7.12715 12.5103C 5.26615 12.8583 3.51815 12.5423 2.02315 11.2933C 1.31315 10.6993 0.828151 9.93829 0.508151 9.07229C -0.0168493 7.65229 -0.14785 6.19729 0.17515 4.71429C 0.52015 3.12729 1.41615 1.91429 2.80515 1.10029C 4.41115 0.161287 6.14415 -0.25771 7.99515 0.16429C 10.3752 0.70829 11.7491 2.25929 12.2571 4.60729C 12.3591 5.08129 12.3732 5.57129 12.4282 6.05329L 12.4282 6.05329ZM 9.82215 7.05729L 9.75315 7.04729L 9.75315 6.76129C 9.71415 5.36529 9.44115 4.03529 8.60815 2.87529C 7.99115 2.01429 7.16515 1.47429 6.10615 1.32329C 4.38015 1.07729 3.25215 2.10129 2.87815 3.49229C 2.39015 5.30929 2.54315 7.10428 3.29815 8.82728C 3.76915 9.90128 4.51315 10.7383 5.65615 11.1443C 7.43815 11.7773 9.05215 10.9393 9.50315 9.11029C 9.66915 8.44129 9.71915 7.74329 9.82215 7.05729L 9.82215 7.05729Z"/>
<path id="path6_fill" fill-rule="evenodd" d="M 17.573 -1.28174e-06C 18.8 3.547 19.682 7.168 19.973 10.92C 20.333 15.576 20.169 20.2 19.187 24.779L 19.061 25.145C 18.753 25.146 18.439 25.107 18.138 25.154C 15.595 25.554 13.055 25.968 10.514 26.38C 7.887 26.806 5.258 27.215 2.636 27.669C 1.707 27.829 0.557001 27.638 0.182001 28.922L 0.00200037 28.983L 0.128999 21.305L 1.46484e-06 2.779L 1.224 2.569C 3.225 2.242 5.226 1.909 7.23 1.59C 9.62 1.211 12.012 0.840999 14.404 0.470999C 15.46 0.308999 16.517 0.157999 17.573 -1.28174e-06L 17.573 -1.28174e-06Z"/>
<path id="path7_fill" fill-rule="evenodd" d="M 19.2014 52.699C 17.9104 51.589 16.5744 50.528 15.3374 49.36C 8.67942 43.08 3.80842 35.687 1.40942 26.774C 0.74842 24.322 0.30842 21.829 0.16642 19.295C 0.0664199 17.521 -0.0765807 15.732 0.0494193 13.967C 0.382419 9.274 1.06142 4.626 2.43742 0.105001L 2.51342 1.80054e-06C 2.64742 0.178002 2.83942 0.336001 2.90742 0.537001C 4.25142 4.493 5.58442 8.453 6.91142 12.416C 11.0804 24.867 15.2444 37.321 19.4204 49.77C 19.5024 50.013 19.7134 50.212 19.8654 50.431L 19.2014 52.699L 19.2014 52.699Z"/>
<path id="path8_fill" fill-rule="evenodd" d="M 18.3611 29.404C 17.3041 29.561 16.2471 29.713 15.1921 29.875C 12.8001 30.245 10.4081 30.615 8.01806 30.994C 6.01506 31.312 4.01406 31.645 2.01206 31.973L 0.788062 32.183L 0.77806 31.385C 0.73706 30.729 0.669063 30.073 0.660063 29.417L 0.523062 16.863C 0.491062 14.244 0.443059 11.625 0.390059 9.007C 0.357059 7.38 0.32206 5.752 0.24906 4.127C 0.20906 3.254 0.0680607 2.385 0.0120607 1.512C -0.0209393 1.01 0.0230639 0.504 0.0340639 -1.33514e-07C 0.658064 1.209 1.26906 2.427 1.91006 3.627C 2.92306 5.524 4.53806 6.922 5.99306 8.447C 11.7391 14.478 15.8181 21.486 18.3611 29.404L 18.3611 29.404Z"/>
<path id="path9_fill" fill-rule="evenodd" d="M 0.55 3.85224L 0.73 3.79124C 1.105 2.50724 2.255 2.69824 3.184 2.53824C 5.806 2.08424 8.435 1.67524 11.062 1.24924C 13.603 0.838239 16.143 0.424241 18.686 0.0232411C 18.987 -0.0237589 19.301 0.0152384 19.609 0.0142384C 19.134 1.71024 18.76 3.44324 18.157 5.09224C 17.472 6.96224 16.644 8.78824 15.765 10.5782C 14.451 13.2532 12.814 15.7492 10.912 18.0362C 9.446 19.7982 7.812 21.4292 6.175 23.0382C 5.269 23.9272 4.203 24.6522 3.209 25.4522L 2.951 25.2762L 2.024 24.4842L 1.065 22.3802C 0.403999 19.9182 0.0579968 17.4122 -3.23486e-06 14.8642L 0.0180021 14.4362L 0.148999 12.5822C 0.191999 11.9492 0.249997 11.3172 0.276997 10.6842C 0.372997 8.40824 0.459 6.13024 0.55 3.85224L 0.55 3.85224Z"/>
<path id="path10_fill" fill-rule="evenodd" d="M 16.715 43.946C 16.625 46.224 16.539 48.503 16.442 50.781C 16.415 51.415 16.358 52.047 16.314 52.679L 15.73 52.9C 14.432 49.079 13.133 45.298 11.863 41.508C 9.762 35.237 7.687 28.957 5.589 22.684C 3.896 17.622 2.188 12.563 0.471 7.508C 0.39 7.272 0.16 7.086 -3.35693e-07 6.877L 3.74 -6.2561e-07C 3.869 0.222999 4.038 0.432 4.119 0.672C 5.849 5.792 7.576 10.913 9.288 16.039C 11.516 22.709 13.729 29.382 15.955 36.053C 16.044 36.319 16.19 36.565 16.33 36.864L 16.842 36.268C 16.799 38.828 16.757 41.386 16.715 43.946Z"/>
<path id="path11_fill" fill-rule="evenodd" d="M 2.5 1.83105e-07C 2.661 0.209 2.891 0.395001 2.971 0.631001C 4.688 5.686 6.396 10.744 8.089 15.807C 10.187 22.08 12.262 28.36 14.363 34.631C 15.633 38.421 16.932 42.201 18.23 46.023L 18.814 45.802L 18.683 47.656L 18.564 48.083C 18.361 50.112 18.19 52.145 17.942 54.17C 17.818 55.185 17.553 56.181 17.352 57.185C 17.201 56.966 16.989 56.767 16.907 56.524C 12.73 44.075 8.567 31.621 4.398 19.17C 3.071 15.207 1.737 11.247 0.394001 7.291C 0.326001 7.09 0.134 6.932 2.13623e-07 6.754L 2.5 1.83105e-07L 2.5 1.83105e-07Z"/>
<path id="path12_fill" fill-rule="evenodd" d="M 13.102 42.352L 12.59 42.948C 12.45 42.649 12.304 42.403 12.215 42.137C 9.989 35.466 7.776 28.793 5.548 22.123C 3.836 16.997 2.109 11.876 0.379 6.756C 0.298 6.516 0.129002 6.307 1.89209e-06 6.084L 4.625 -2.59399e-07C 4.771 0.194 4.979 0.367 5.054 0.586C 6.338 4.346 7.61 8.109 8.876 11.875C 10.058 15.393 11.222 18.915 12.418 22.427C 12.498 22.662 12.777 22.828 12.963 23.028L 12.973 23.826L 13.102 42.352L 13.102 42.352Z"/>
<path id="path13_fill" fill-rule="evenodd" d="M 8.338 32.384C 8.151 32.185 7.873 32.019 7.793 31.783C 6.598 28.271 5.433 24.749 4.251 21.231C 2.985 17.465 1.713 13.702 0.428999 9.942C 0.353999 9.723 0.146002 9.55 1.89209e-06 9.356C 1.504 7.883 2.961 6.357 4.526 4.952C 5.917 3.704 7.035 2.366 7.087 0.393L 7.197 3.24249e-08L 7.593 0.998C 7.583 1.502 7.538 2.008 7.571 2.51C 7.628 3.383 7.769 4.252 7.808 5.125C 7.881 6.75 7.916 8.378 7.949 10.005C 8.002 12.623 8.05 15.242 8.082 17.861L 8.219 30.415C 8.229 31.072 8.298 31.728 8.338 32.384L 8.338 32.384Z"/>
<path id="path14_fill" fill-rule="evenodd" d="M 0.665001 9.11C 0.866001 8.106 1.131 7.11 1.255 6.095C 1.503 4.071 1.674 2.037 1.877 0.00800092L 1.928 -2.31934e-06L 1.978 0.00900037C 2.036 2.557 2.382 5.063 3.043 7.525C 2.908 7.703 2.719 7.86 2.647 8.06C 2.092 9.626 1.568 11.205 1.01 12.77C 0.933998 12.984 0.719999 13.151 0.570999 13.338L -6.10352e-08 11.378L 0.665001 9.11Z"/>
<path id="path15_fill" fill-rule="evenodd" d="M -9.15527e-07 5.813C 0.148999 5.625 0.362998 5.459 0.438998 5.245C 0.996998 3.68 1.521 2.101 2.076 0.535002C 2.147 0.335002 2.337 0.177999 2.472 -1.34277e-06L 3.431 2.104C 3.242 2.372 2.98 2.615 2.875 2.914L 1.039 8.306C 0.963001 8.523 0.706001 8.675 0.532001 8.858L -9.15527e-07 5.813L -9.15527e-07 5.813Z"/>
<path id="path16_fill" fill-rule="evenodd" d="M 5.79834e-07 6.754C 0.173001 6.571 0.431001 6.419 0.507001 6.202L 2.343 0.810001C 2.447 0.511001 2.71 0.268003 2.899 3.11279e-06L 3.827 0.791003C 3.379 1.234 3.13 1.746 3.28 2.393L 2.998 3.316C 2.87 3.474 2.684 3.612 2.621 3.793C 1.98 5.629 1.369 7.475 0.722996 9.31C 0.640996 9.542 0.414002 9.725 0.255002 9.931L 5.79834e-07 6.754L 5.79834e-07 6.754Z"/>
<path id="path17_fill" fill-rule="evenodd" d="M 0.0120959 6.615C 0.172096 6.409 0.399094 6.226 0.480094 5.994C 1.12609 4.159 1.7381 2.313 2.3781 0.477003C 2.4411 0.296003 2.6271 0.158998 2.7551 -2.0752e-06L 2.3661 4.236C 2.2621 4.356 2.1121 4.461 2.0621 4.6L 0.768096 8.308C 0.677096 8.561 0.503099 8.787 0.367099 9.024C 0.246099 8.866 0.0300991 8.713 0.0200991 8.549C -0.0179009 7.907 0.00909586 7.26 0.0120959 6.615L 0.0120959 6.615Z"/>
<path id="path18_fill" fill-rule="evenodd" d="M 1.19019e-06 4.788C 0.136001 4.551 0.309998 4.325 0.400998 4.072L 1.695 0.364003C 1.745 0.224003 1.896 0.119997 1.999 -2.56348e-06L 2.009 2.78L 1.078 5.167L 1.19019e-06 4.788L 1.19019e-06 4.788Z"/>
<path id="path19_fill" fill-rule="evenodd" d="M 3.05176e-07 2.387L 0.931 -3.78418e-06L 1.123 2.824L 3.05176e-07 2.387L 3.05176e-07 2.387Z"/>
<path id="path20_fill" fill-rule="evenodd" d="M 0.0433475 1.602C -0.105653 0.956001 0.142345 0.444003 0.590345 3.479e-06L 0.84834 0.175998L 0.0433475 1.602L 0.0433475 1.602Z"/>
<path id="path21_fill" fill-rule="evenodd" d="M 0.100997 0.428L 0.0510013 0.418997L -1.15967e-06 0.427L 0.119002 -1.58691e-06L 0.100997 0.428L 0.100997 0.428Z"/>
</defs>
</svg>
