<svg width="372" height="195" viewBox="0 0 372 195" version="1.1" xmlns="http://www.w3.org/2000/svg" xmlns:xlink="http://www.w3.org/1999/xlink" xmlns:figma="http://www.figma.com/figma/ns">
<title>mysql</title>
<desc>Created using Figma</desc>
<g id="Canvas" transform="matrix(3 0 0 3 41973 -11997)" figma:type="canvas">
<g id="mysql" figma:type="frame">
<g id="Vector" figma:type="vector">
<use xlink:href="#path0_fill" transform="translate(-13991 3999)" fill="#00618A"/>
</g>
</g>
</g>
<defs>
<path id="path0_fill" d="M 0.000999928 58.6588L 4.109 58.6588L 4.109 42.4358L 10.469 56.5788C 11.219 58.2908 12.246 58.8958 14.261 58.8958C 16.276 58.8958 17.264 58.2908 18.014 56.5788L 24.374 42.4358L 24.374 58.6588L 28.482 58.6588L 28.482 42.4628C 28.482 40.8828 27.85 40.1178 26.546 39.7238C 23.425 38.7498 21.331 39.5928 20.383 41.6998L 14.142 55.6578L 8.099 41.6988C 7.19 39.5928 5.057 38.7498 1.936 39.7228C 0.632 40.1178 -3.55271e-15 40.8818 -3.55271e-15 42.4618L -3.55271e-15 58.6588L 0.000999928 58.6588ZM 31.899 45.4528L 36.006 45.4528L 36.006 54.3908C 35.968 54.8758 36.162 56.0158 38.412 56.0518C 39.56 56.0698 47.274 56.0518 47.346 56.0518L 47.346 45.4088L 51.463 45.4088C 51.482 45.4088 51.459 59.9228 51.459 59.9828C 51.481 63.5628 47.018 64.3398 44.96 64.3998L 31.988 64.3998L 31.988 61.6358C 32.01 61.6358 44.951 61.6388 44.983 61.6348C 47.628 61.3558 47.315 60.0418 47.314 59.5998L 47.314 58.5218L 38.583 58.5218C 34.521 58.4848 31.933 56.7118 31.9 54.6718C 31.898 54.4848 31.989 45.5428 31.899 45.4528L 31.899 45.4528ZM 54.63 58.6588L 66.442 58.6588C 67.825 58.6588 69.169 58.3698 70.235 57.8698C 72.012 57.0538 72.881 55.9478 72.881 54.4978L 72.881 51.4958C 72.881 50.3108 71.894 49.2038 69.958 48.4678C 68.931 48.0718 67.666 47.8628 66.441 47.8628L 61.463 47.8628C 59.804 47.8628 59.014 47.3628 58.817 46.2568C 58.778 46.1248 58.778 46.0198 58.778 45.8878L 58.778 44.0178C 58.778 43.9128 58.778 43.8068 58.817 43.6758C 59.014 42.8328 59.449 42.5958 60.911 42.4638L 61.306 42.4378L 73.039 42.4378L 73.039 39.6998L 61.504 39.6998C 59.845 39.6998 58.976 39.8048 58.186 40.0418C 55.737 40.8058 54.669 42.0168 54.669 44.1238L 54.669 46.5198C 54.669 48.3638 56.764 49.9438 60.279 50.3128C 60.675 50.3378 61.069 50.3658 61.464 50.3658L 65.731 50.3658C 65.889 50.3658 66.047 50.3658 66.166 50.3908C 67.47 50.4958 68.022 50.7338 68.418 51.2068C 68.655 51.4438 68.733 51.6818 68.733 51.9438L 68.733 54.3408C 68.733 54.6298 68.536 54.9988 68.141 55.3148C 67.786 55.6308 67.193 55.8418 66.403 55.8948L 65.968 55.9208L 54.63 55.9208L 54.63 58.6588L 54.63 58.6588ZM 98.511 53.8928C 98.511 56.7098 100.605 58.2898 104.831 58.6068C 105.226 58.6328 105.621 58.6588 106.016 58.6588L 116.722 58.6588L 116.722 55.9208L 105.938 55.9208C 103.528 55.9208 102.62 55.3148 102.62 53.8658L 102.62 39.6978L 98.512 39.6978L 98.512 53.8928L 98.511 53.8928ZM 75.503 54.0348L 75.503 44.2698C 75.503 41.7898 77.245 40.2848 80.689 39.8098C 81.045 39.7568 81.442 39.7308 81.797 39.7308L 89.596 39.7308C 89.992 39.7308 90.348 39.7568 90.743 39.8098C 94.187 40.2848 95.93 41.7888 95.93 44.2698L 95.93 54.0348C 95.93 56.0488 95.19 57.1248 93.485 57.8268L 97.533 61.4798L 92.762 61.4798L 89.488 58.5238L 86.192 58.7328L 81.797 58.7328C 81.045 58.7328 80.254 58.6278 79.383 58.3898C 76.77 57.6778 75.503 56.3048 75.503 54.0348L 75.503 54.0348ZM 79.938 53.7978C 79.938 53.9298 79.977 54.0628 80.017 54.2208C 80.254 55.3558 81.324 55.9888 82.946 55.9888L 86.678 55.9888L 83.25 52.8938L 88.021 52.8938L 91.01 55.5938C 91.562 55.2988 91.924 54.8508 92.051 54.2738C 92.09 54.1418 92.09 54.0098 92.09 53.8778L 92.09 44.5098C 92.09 44.4048 92.09 44.2718 92.051 44.1398C 91.813 43.0838 90.744 42.4778 89.161 42.4778L 82.945 42.4778C 81.125 42.4778 79.937 43.2698 79.937 44.5098L 79.937 53.7978L 79.938 53.7978ZM 120.336 35.1528C 117.811 35.0838 115.882 35.3188 114.232 36.0138C 113.763 36.2118 113.016 36.2168 112.94 36.8038C 113.197 37.0748 113.237 37.4778 113.442 37.8098C 113.836 38.4468 114.501 39.3008 115.094 39.7478C 115.741 40.2368 116.409 40.7608 117.105 41.1848C 118.34 41.9388 119.72 42.3688 120.911 43.1228C 121.612 43.5688 122.308 44.1288 122.993 44.6318C 123.332 44.8788 123.558 45.2658 123.999 45.4208L 123.999 45.3498C 123.768 45.0558 123.708 44.6518 123.496 44.3438L 122.562 43.4098C 121.649 42.1978 120.491 41.1348 119.258 40.2508C 118.276 39.5458 116.078 38.5928 115.668 37.4498L 115.596 37.3788C 116.292 37.2998 117.108 37.0478 117.75 36.8758C 118.83 36.5858 119.795 36.6608 120.91 36.3728L 122.418 35.9408L 122.418 35.6548C 121.855 35.0768 121.452 34.3108 120.838 33.7878C 119.231 32.4188 117.475 31.0508 115.668 29.9088C 114.666 29.2768 113.427 28.8658 112.364 28.3298C 112.008 28.1488 111.38 28.0558 111.143 27.7548C 110.584 27.0438 110.281 26.1428 109.85 25.3138C 108.95 23.5788 108.064 21.6828 107.265 19.8558C 106.721 18.6108 106.365 17.3828 105.686 16.2658C 102.425 10.9048 98.915 7.66878 93.478 4.48878C 92.321 3.81178 90.928 3.54578 89.457 3.19678L 87.087 3.05278C 86.606 2.85178 86.104 2.26178 85.651 1.97578C 83.849 0.837781 79.229 -1.63722 77.895 1.61778C 77.053 3.67178 79.155 5.67578 79.906 6.71678C 80.433 7.44678 81.109 8.26478 81.486 9.08578C 81.734 9.62578 81.776 10.1668 81.989 10.7378C 82.51 12.1438 82.965 13.6748 83.64 14.9738C 83.981 15.6318 84.358 16.3248 84.789 16.9128C 85.053 17.2728 85.507 17.4328 85.578 17.9898C 85.135 18.6098 85.109 19.5738 84.86 20.3588C 83.738 23.8978 84.161 28.2968 85.794 30.9158C 86.295 31.7208 87.475 33.4448 89.097 32.7828C 90.516 32.2048 90.2 30.4138 90.606 28.8328C 90.698 28.4758 90.641 28.2118 90.821 27.9718L 90.821 28.0438L 92.114 30.6288C 93.071 32.1698 94.768 33.7788 96.207 34.8658C 96.953 35.4288 97.541 36.4038 98.505 36.7328L 98.505 36.6598L 98.434 36.6598C 98.246 36.3688 97.955 36.2488 97.715 36.0138C 97.153 35.4628 96.528 34.7788 96.064 34.1468C 94.755 32.3708 93.599 30.4258 92.545 28.4018C 92.042 27.4358 91.605 26.3698 91.181 25.3858C 91.017 25.0068 91.019 24.4328 90.679 24.2378C 90.213 24.9578 89.53 25.5408 89.17 26.3918C 88.596 27.7518 88.522 29.4108 88.309 31.1308L 88.165 31.2018C 87.164 30.9608 86.813 29.9308 86.441 29.0478C 85.501 26.8148 85.326 23.2178 86.154 20.6468C 86.368 19.9808 87.335 17.8858 86.943 17.2708C 86.756 16.6578 86.139 16.3038 85.795 15.8338C 85.368 15.2548 84.941 14.4928 84.646 13.8228C 83.876 12.0818 83.517 10.1268 82.708 8.36578C 82.32 7.52378 81.666 6.67278 81.128 5.92478C 80.533 5.09478 79.866 4.48478 79.404 3.48278C 79.24 3.12678 79.017 2.55578 79.26 2.18978C 79.337 1.94278 79.448 1.83978 79.692 1.75878C 80.108 1.43778 81.268 1.86578 81.702 2.04578C 82.854 2.52478 83.815 2.97978 84.791 3.62578C 85.259 3.93678 85.732 4.53678 86.299 4.70278L 86.945 4.70278C 87.956 4.93478 89.089 4.77378 90.033 5.06078C 91.703 5.56878 93.199 6.35778 94.557 7.21578C 98.696 9.82978 102.079 13.5498 104.395 17.9878C 104.767 18.7028 104.929 19.3838 105.256 20.1418C 105.918 21.6698 106.752 23.2428 107.41 24.7378C 108.067 26.2288 108.708 27.7338 109.637 28.9748C 110.125 29.6268 112.011 29.9768 112.868 30.3388C 113.469 30.5928 114.453 30.8578 115.022 31.1998C 116.109 31.8558 117.163 32.6368 118.182 33.3548C 118.691 33.7168 120.258 34.5038 120.336 35.1528L 120.336 35.1528ZM 88.237 7.79378C 87.711 7.78378 87.338 7.85178 86.944 7.93778L 86.944 8.00878L 87.016 8.00878C 87.267 8.52578 87.71 8.85778 88.021 9.30178L 88.74 10.8098L 88.811 10.7388C 89.256 10.4258 89.459 9.92478 89.457 9.15878C 89.278 8.97078 89.252 8.73578 89.098 8.51278C 88.894 8.21278 88.496 8.04478 88.237 7.79378L 88.237 7.79378Z"/>
</defs>
</svg>
