<svg width="372" height="195" viewBox="0 0 372 195" version="1.1" xmlns="http://www.w3.org/2000/svg" xmlns:xlink="http://www.w3.org/1999/xlink" xmlns:figma="http://www.figma.com/figma/ns">
<title>mysql</title>
<desc>Created using Figma</desc>
<g id="Canvas" transform="matrix(3 0 0 3 -14418 -2034)" figma:type="canvas">
<g id="mysql" figma:type="frame">
<g id="Vector" figma:type="vector">
<use xlink:href="#path0_fill" transform="translate(4806 717.32)" fill="#00618A"/>
</g>
<g id="Vector" figma:type="vector">
<use xlink:href="#path1_fill" transform="translate(4860.63 717.698)" fill="#E48E00"/>
</g>
<g id="Vector" figma:type="vector">
<use xlink:href="#path2_fill" transform="translate(4883.7 678)" fill="#00618A"/>
</g>
</g>
</g>
<defs>
<path id="path0_fill" d="M 0.000999928 19.3383L 4.109 19.3383L 4.109 3.11534L 10.469 17.2583C 11.219 18.9703 12.246 19.5753 14.261 19.5753C 16.276 19.5753 17.264 18.9703 18.014 17.2583L 24.374 3.11534L 24.374 19.3383L 28.482 19.3383L 28.482 3.14234C 28.482 1.56234 27.85 0.797339 26.546 0.403339C 23.425 -0.570661 21.331 0.272337 20.383 2.37934L 14.142 16.3373L 8.099 2.37834C 7.19 0.272338 5.057 -0.57066 1.936 0.40234C 0.632 0.79734 -3.55271e-15 1.56134 -3.55271e-15 3.14134L -3.55271e-15 19.3383L 0.000999928 19.3383ZM 31.899 6.13234L 36.006 6.13234L 36.006 15.0703C 35.968 15.5553 36.162 16.6953 38.412 16.7313C 39.56 16.7493 47.274 16.7313 47.346 16.7313L 47.346 6.08834L 51.463 6.08834C 51.482 6.08834 51.459 20.6023 51.459 20.6623C 51.481 24.2423 47.018 25.0193 44.96 25.0793L 31.988 25.0793L 31.988 22.3153C 32.01 22.3153 44.951 22.3183 44.983 22.3143C 47.628 22.0353 47.315 20.7213 47.314 20.2793L 47.314 19.2013L 38.583 19.2013C 34.521 19.1643 31.933 17.3913 31.9 15.3513C 31.898 15.1643 31.989 6.22234 31.899 6.13234L 31.899 6.13234Z"/>
<path id="path1_fill" d="M 1.06812e-06 18.961L 11.812 18.961C 13.195 18.961 14.539 18.672 15.605 18.172C 17.382 17.356 18.251 16.25 18.251 14.8L 18.251 11.798C 18.251 10.613 17.264 9.506 15.328 8.77C 14.301 8.374 13.036 8.165 11.811 8.165L 6.833 8.165C 5.174 8.165 4.384 7.665 4.187 6.559C 4.148 6.427 4.148 6.322 4.148 6.19L 4.148 4.32C 4.148 4.215 4.148 4.109 4.187 3.978C 4.384 3.135 4.819 2.898 6.281 2.766L 6.676 2.74L 18.409 2.74L 18.409 0.00200055L 6.874 0.00200055C 5.215 0.00200055 4.346 0.107003 3.556 0.344003C 1.107 1.108 0.0389987 2.319 0.0389987 4.426L 0.0389987 6.822C 0.0389987 8.666 2.134 10.246 5.649 10.615C 6.045 10.64 6.439 10.668 6.834 10.668L 11.101 10.668C 11.259 10.668 11.417 10.668 11.536 10.693C 12.84 10.798 13.392 11.036 13.788 11.509C 14.025 11.746 14.103 11.984 14.103 12.246L 14.103 14.643C 14.103 14.932 13.906 15.301 13.511 15.617C 13.156 15.933 12.563 16.144 11.773 16.197L 11.338 16.223L 1.06812e-06 16.223L 1.06812e-06 18.961L 1.06812e-06 18.961ZM 43.881 14.195C 43.881 17.012 45.975 18.592 50.201 18.909C 50.596 18.935 50.991 18.961 51.386 18.961L 62.092 18.961L 62.092 16.223L 51.308 16.223C 48.898 16.223 47.99 15.617 47.99 14.168L 47.99 1.64795e-06L 43.882 1.64795e-06L 43.882 14.195L 43.881 14.195ZM 20.873 14.337L 20.873 4.572C 20.873 2.092 22.615 0.587001 26.059 0.112001C 26.415 0.0590012 26.812 0.0329988 27.167 0.0329988L 34.966 0.0329988C 35.362 0.0329988 35.718 0.0590012 36.113 0.112001C 39.557 0.587001 41.3 2.091 41.3 4.572L 41.3 14.337C 41.3 16.351 40.56 17.427 38.855 18.129L 42.903 21.782L 38.132 21.782L 34.858 18.826L 31.562 19.035L 27.167 19.035C 26.415 19.035 25.624 18.93 24.753 18.692C 22.14 17.98 20.873 16.607 20.873 14.337L 20.873 14.337ZM 25.307 14.1C 25.307 14.232 25.346 14.365 25.386 14.523C 25.623 15.658 26.693 16.291 28.315 16.291L 32.047 16.291L 28.619 13.196L 33.39 13.196L 36.379 15.896C 36.931 15.601 37.293 15.153 37.42 14.576C 37.459 14.444 37.459 14.312 37.459 14.18L 37.459 4.812C 37.459 4.707 37.459 4.574 37.42 4.442C 37.182 3.386 36.113 2.78 34.53 2.78L 28.314 2.78C 26.494 2.78 25.306 3.572 25.306 4.812L 25.306 14.1L 25.307 14.1Z"/>
<path id="path2_fill" d="M 42.6367 35.1528C 40.1117 35.0838 38.1827 35.3188 36.5327 36.0138C 36.0637 36.2118 35.3167 36.2168 35.2407 36.8038C 35.4977 37.0748 35.5377 37.4778 35.7427 37.8098C 36.1367 38.4468 36.8017 39.3008 37.3947 39.7478C 38.0417 40.2368 38.7097 40.7608 39.4057 41.1848C 40.6407 41.9388 42.0207 42.3688 43.2117 43.1228C 43.9127 43.5688 44.6087 44.1288 45.2937 44.6318C 45.6327 44.8788 45.8587 45.2658 46.2997 45.4208L 46.2997 45.3498C 46.0687 45.0558 46.0087 44.6518 45.7967 44.3438L 44.8627 43.4098C 43.9497 42.1978 42.7917 41.1348 41.5587 40.2508C 40.5767 39.5458 38.3787 38.5928 37.9687 37.4498L 37.8967 37.3788C 38.5927 37.2998 39.4087 37.0478 40.0507 36.8758C 41.1307 36.5858 42.0957 36.6608 43.2107 36.3728L 44.7187 35.9408L 44.7187 35.6548C 44.1557 35.0768 43.7527 34.3108 43.1387 33.7878C 41.5317 32.4188 39.7757 31.0508 37.9687 29.9088C 36.9667 29.2768 35.7277 28.8658 34.6647 28.3298C 34.3087 28.1488 33.6807 28.0558 33.4437 27.7548C 32.8847 27.0438 32.5817 26.1428 32.1507 25.3138C 31.2507 23.5788 30.3647 21.6828 29.5657 19.8558C 29.0217 18.6108 28.6657 17.3828 27.9867 16.2658C 24.7257 10.9048 21.2157 7.66878 15.7787 4.48878C 14.6217 3.81178 13.2287 3.54578 11.7577 3.19678L 9.38768 3.05278C 8.90668 2.85178 8.40469 2.26178 7.95169 1.97578C 6.14969 0.837781 1.52968 -1.63722 0.195682 1.61778C -0.646318 3.67178 1.45568 5.67578 2.20668 6.71678C 2.73368 7.44678 3.40969 8.26478 3.78669 9.08578C 4.03469 9.62578 4.07668 10.1668 4.28968 10.7378C 4.81068 12.1438 5.26568 13.6748 5.94068 14.9738C 6.28168 15.6318 6.65869 16.3248 7.08969 16.9128C 7.35369 17.2728 7.80769 17.4328 7.87869 17.9898C 7.43569 18.6098 7.40969 19.5738 7.16069 20.3588C 6.03869 23.8978 6.46168 28.2968 8.09468 30.9158C 8.59568 31.7208 9.77569 33.4448 11.3977 32.7828C 12.8167 32.2048 12.5007 30.4138 12.9067 28.8328C 12.9987 28.4758 12.9417 28.2118 13.1217 27.9718L 13.1217 28.0438L 14.4147 30.6288C 15.3717 32.1698 17.0687 33.7788 18.5077 34.8658C 19.2537 35.4288 19.8417 36.4038 20.8057 36.7328L 20.8057 36.6598L 20.7347 36.6598C 20.5467 36.3688 20.2557 36.2488 20.0157 36.0138C 19.4537 35.4628 18.8287 34.7788 18.3647 34.1468C 17.0557 32.3708 15.8997 30.4258 14.8457 28.4018C 14.3427 27.4358 13.9057 26.3698 13.4817 25.3858C 13.3177 25.0068 13.3197 24.4328 12.9797 24.2378C 12.5137 24.9578 11.8307 25.5408 11.4707 26.3918C 10.8967 27.7518 10.8227 29.4108 10.6097 31.1308L 10.4657 31.2018C 9.46469 30.9608 9.11369 29.9308 8.74169 29.0478C 7.80169 26.8148 7.62669 23.2178 8.45469 20.6468C 8.66869 19.9808 9.63569 17.8858 9.24369 17.2708C 9.05669 16.6578 8.43968 16.3038 8.09568 15.8338C 7.66868 15.2548 7.24169 14.4928 6.94669 13.8228C 6.17669 12.0818 5.81769 10.1268 5.00869 8.36578C 4.62069 7.52378 3.96668 6.67278 3.42868 5.92478C 2.83368 5.09478 2.16668 4.48478 1.70468 3.48278C 1.54068 3.12678 1.31769 2.55578 1.56069 2.18978C 1.63769 1.94278 1.74869 1.83978 1.99269 1.75878C 2.40869 1.43778 3.56869 1.86578 4.00269 2.04578C 5.15469 2.52478 6.11569 2.97978 7.09169 3.62578C 7.55969 3.93678 8.03269 4.53678 8.59969 4.70278L 9.24569 4.70278C 10.2567 4.93478 11.3897 4.77378 12.3337 5.06078C 14.0037 5.56878 15.4997 6.35778 16.8577 7.21578C 20.9967 9.82978 24.3797 13.5498 26.6957 17.9878C 27.0677 18.7028 27.2297 19.3838 27.5567 20.1418C 28.2187 21.6698 29.0527 23.2428 29.7107 24.7378C 30.3677 26.2288 31.0087 27.7338 31.9377 28.9748C 32.4257 29.6268 34.3117 29.9768 35.1687 30.3388C 35.7697 30.5928 36.7537 30.8578 37.3227 31.1998C 38.4097 31.8558 39.4637 32.6368 40.4827 33.3548C 40.9917 33.7168 42.5587 34.5038 42.6367 35.1528L 42.6367 35.1528ZM 10.5377 7.79378C 10.0117 7.78378 9.63869 7.85178 9.24469 7.93778L 9.24469 8.00878L 9.31668 8.00878C 9.56768 8.52578 10.0107 8.85778 10.3217 9.30178L 11.0407 10.8098L 11.1117 10.7388C 11.5567 10.4258 11.7597 9.92478 11.7577 9.15878C 11.5787 8.97078 11.5527 8.73578 11.3987 8.51278C 11.1947 8.21278 10.7967 8.04478 10.5377 7.79378L 10.5377 7.79378Z"/>
</defs>
</svg>
