<svg width="360" height="102" viewBox="0 0 360 102" version="1.1" xmlns="http://www.w3.org/2000/svg" xmlns:xlink="http://www.w3.org/1999/xlink" xmlns:figma="http://www.figma.com/figma/ns">
<title>nodejs</title>
<desc>Created using Figma</desc>
<g id="Canvas" transform="matrix(3 0 0 3 41601 -12090)" figma:type="canvas">
<g id="nodejs" figma:type="frame">
<g id="Vector" figma:type="vector">
<use xlink:href="#path0_fill" transform="translate(-13867 4030)" fill="#83CD29"/>
</g>
</g>
</g>
<defs>
<path id="path0_fill" d="M 110.258 33.6748C 109.968 33.6748 109.68 33.5988 109.426 33.4508L 106.776 31.8828C 106.38 31.6618 106.573 31.5828 106.704 31.5378C 107.232 31.3538 107.339 31.3108 107.902 30.9928C 107.961 30.9598 108.038 30.9718 108.099 31.0078L 110.134 32.2168C 110.208 32.2578 110.313 32.2578 110.38 32.2168L 118.317 27.6358C 118.392 27.5938 118.439 27.5088 118.439 27.4208L 118.439 18.2608C 118.439 18.1708 118.392 18.0878 118.316 18.0418L 110.382 13.4648C 110.308 13.4228 110.211 13.4228 110.137 13.4648L 102.204 18.0428C 102.128 18.0878 102.079 18.1738 102.079 18.2608L 102.079 27.4208C 102.079 27.5088 102.128 27.5918 102.204 27.6328L 104.378 28.8898C 105.558 29.4788 106.281 28.7848 106.281 28.0868L 106.281 19.0418C 106.281 18.9148 106.384 18.8138 106.511 18.8138L 107.518 18.8138C 107.643 18.8138 107.747 18.9148 107.747 19.0418L 107.747 28.0868C 107.747 29.6608 106.89 30.5638 105.397 30.5638C 104.938 30.5638 104.577 30.5638 103.569 30.0678L 101.488 28.8698C 100.973 28.5718 100.656 28.0158 100.656 27.4218L 100.656 18.2618C 100.656 17.6668 100.973 17.1118 101.488 16.8158L 109.425 12.2288C 109.927 11.9458 110.594 11.9458 111.092 12.2288L 119.029 16.8158C 119.543 17.1128 119.862 17.6678 119.862 18.2618L 119.862 27.4218C 119.862 28.0168 119.543 28.5698 119.029 28.8698L 111.092 33.4518C 110.84 33.5988 110.553 33.6748 110.258 33.6748L 110.258 33.6748ZM 112.711 27.3638C 109.236 27.3638 108.509 25.7688 108.509 24.4318C 108.509 24.3058 108.612 24.2028 108.739 24.2028L 109.765 24.2028C 109.88 24.2028 109.975 24.2848 109.993 24.3968C 110.147 25.4418 110.61 25.9688 112.711 25.9688C 114.382 25.9688 115.094 25.5908 115.094 24.7028C 115.094 24.1908 114.892 23.8118 112.294 23.5568C 110.122 23.3418 108.779 22.8628 108.779 21.1238C 108.779 19.5228 110.129 18.5668 112.391 18.5668C 114.934 18.5668 116.192 19.4498 116.351 21.3438C 116.357 21.4078 116.334 21.4708 116.291 21.5198C 116.247 21.5648 116.187 21.5928 116.123 21.5928L 115.092 21.5928C 114.985 21.5928 114.891 21.5178 114.869 21.4138C 114.621 20.3138 114.021 19.9628 112.39 19.9628C 110.565 19.9628 110.353 20.5998 110.353 21.0748C 110.353 21.6518 110.603 21.8198 113.068 22.1458C 115.507 22.4688 116.666 22.9248 116.666 24.6398C 116.667 26.3728 115.225 27.3638 112.711 27.3638L 112.711 27.3638ZM 93.915 21.3558C 94.228 21.1728 94.421 20.8388 94.421 20.4758L 94.421 18.1218C 94.421 17.7598 94.229 17.4258 93.915 17.2428L 85.551 12.3868C 85.236 12.2038 84.848 12.2028 84.532 12.3848L 76.116 17.2438C 75.802 17.4258 75.608 17.7608 75.608 18.1238L 75.608 27.8398C 75.608 28.2048 75.804 28.5428 76.122 28.7238L 84.485 33.4888C 84.793 33.6658 85.171 33.6668 85.482 33.4948L 90.54 30.6828C 90.701 30.5928 90.801 30.4248 90.802 30.2428C 90.803 30.0588 90.705 29.8888 90.546 29.7978L 82.078 24.9378C 81.919 24.8468 81.822 24.6788 81.822 24.4978L 81.822 21.4518C 81.822 21.2698 81.919 21.1028 82.076 21.0128L 84.713 19.4928C 84.869 19.4018 85.063 19.4018 85.22 19.4928L 87.857 21.0128C 88.015 21.1038 88.112 21.2708 88.112 21.4518L 88.112 23.8478C 88.112 24.0308 88.209 24.1988 88.366 24.2888C 88.524 24.3798 88.718 24.3798 88.876 24.2878L 93.915 21.3558L 93.915 21.3558ZM 84.917 20.8998C 84.978 20.8658 85.052 20.8658 85.112 20.8998L 86.727 21.8328C 86.787 21.8678 86.824 21.9328 86.824 22.0018L 86.824 23.8668C 86.824 23.9368 86.787 24.0008 86.727 24.0358L 85.112 24.9678C 85.052 25.0028 84.977 25.0028 84.917 24.9678L 83.303 24.0358C 83.242 24.0008 83.205 23.9368 83.205 23.8668L 83.205 22.0018C 83.205 21.9328 83.242 21.8678 83.303 21.8328L 84.917 20.8998ZM 63.016 24.7798C 63.016 24.8698 62.968 24.9538 62.889 24.9998L 59.999 26.6658C 59.92 26.7118 59.823 26.7118 59.745 26.6658L 56.855 24.9998C 56.776 24.9538 56.728 24.8698 56.728 24.7798L 56.728 21.4418C 56.728 21.3518 56.777 21.2668 56.855 21.2208L 59.745 19.5528C 59.824 19.5058 59.921 19.5058 60 19.5528L 62.891 21.2208C 62.969 21.2668 63.017 21.3518 63.017 21.4418L 63.017 24.7798L 63.016 24.7798ZM 63.797 0.0637842C 63.64 -0.0232158 63.448 -0.0212153 63.292 0.0697847C 63.137 0.161785 63.041 0.327784 63.041 0.507784L 63.041 13.4228C 63.041 13.5488 62.973 13.6668 62.864 13.7308C 62.754 13.7938 62.618 13.7938 62.508 13.7308L 60.4 12.5158C 60.086 12.3348 59.699 12.3348 59.385 12.5158L 50.967 17.3738C 50.652 17.5558 50.458 17.8918 50.458 18.2548L 50.458 27.9738C 50.458 28.3368 50.652 28.6718 50.966 28.8548L 59.384 33.7158C 59.698 33.8978 60.086 33.8978 60.401 33.7158L 68.821 28.8548C 69.135 28.6718 69.329 28.3368 69.329 27.9738L 69.329 3.74678C 69.329 3.37878 69.129 3.03878 68.808 2.85878L 63.797 0.0637842L 63.797 0.0637842ZM 34.171 12.3328C 34.485 12.1508 34.873 12.1508 35.187 12.3328L 43.605 17.1898C 43.919 17.3718 44.113 17.7078 44.113 18.0708L 44.113 27.7928C 44.113 28.1558 43.919 28.4918 43.605 28.6738L 35.188 33.5348C 34.874 33.7158 34.486 33.7158 34.171 33.5348L 25.756 28.6738C 25.442 28.4918 25.248 28.1558 25.248 27.7928L 25.248 18.0698C 25.248 17.7078 25.442 17.3718 25.756 17.1898L 34.171 12.3328L 34.171 12.3328ZM 18.863 17.9898C 18.863 17.6238 18.671 17.2878 18.355 17.1068L 9.94 12.2638C 9.796 12.1798 9.637 12.1368 9.476 12.1308L 9.389 12.1308C 9.229 12.1368 9.069 12.1798 8.925 12.2638L 0.509 17.1068C 0.196 17.2878 -8.7738e-08 17.6238 -8.7738e-08 17.9898L 0.018 31.0298C 0.018 31.2118 0.113 31.3808 0.272 31.4688C 0.428 31.5628 0.621 31.5628 0.777 31.4688L 5.777 28.6048C 6.093 28.4168 6.286 28.0858 6.286 27.7228L 6.286 21.6308C 6.286 21.2668 6.478 20.9318 6.793 20.7498L 8.923 19.5238C 9.081 19.4308 9.255 19.3868 9.431 19.3868C 9.605 19.3868 9.783 19.4308 9.938 19.5238L 12.066 20.7498C 12.381 20.9318 12.575 21.2668 12.575 21.6308L 12.575 27.7228C 12.575 28.0858 12.77 28.4188 13.084 28.6048L 18.084 31.4688C 18.241 31.5628 18.437 31.5628 18.592 31.4688C 18.747 31.3798 18.844 31.2108 18.844 31.0298L 18.863 17.9898Z"/>
</defs>
</svg>
