<svg width="267" height="378" viewBox="0 0 267 378" version="1.1" xmlns="http://www.w3.org/2000/svg" xmlns:xlink="http://www.w3.org/1999/xlink" xmlns:figma="http://www.figma.com/figma/ns">
<title>css</title>
<desc>Created using Figma</desc>
<g id="Canvas" transform="matrix(3 0 0 3 -13902 -1665)" figma:type="canvas">
<g id="css" figma:type="frame">
<g id="Vector" figma:type="vector">
<use xlink:href="#path0_fill" transform="translate(4652.96 555)" fill="#131313"/>
</g>
<g id="Vector" figma:type="vector">
<use xlink:href="#path1_fill" transform="translate(4634 579.686)" fill="#1572B6"/>
</g>
<g id="Vector" figma:type="vector">
<use xlink:href="#path2_fill" transform="translate(4678.48 587.112)" fill="#33A9DC"/>
</g>
<g id="Vector" figma:type="vector">
<use xlink:href="#path3_fill" transform="translate(4678.48 597.47)" fill="#FFFFFF"/>
</g>
<g id="Vector" figma:type="vector">
<use xlink:href="#path4_fill" transform="translate(4654.12 636.72)" fill="#EBEBEB"/>
</g>
<g id="Vector" figma:type="vector">
<use xlink:href="#path5_fill" transform="translate(4678.51 630.679)" fill="#FFFFFF"/>
</g>
<g id="Vector" figma:type="vector">
<use xlink:href="#path6_fill" transform="translate(4650.62 597.47)" fill="#EBEBEB"/>
</g>
</g>
</g>
<defs>
<path id="path0_fill" d="M 50.763 4.649L 43.379 4.649L 51.058 12.982L 51.058 16.949L 35.242 16.949L 35.242 12.304L 42.92 12.304L 35.242 3.971L 35.242 1.71661e-08L 50.763 1.71661e-08L 50.763 4.649L 50.763 4.649ZM 32.106 4.649L 24.722 4.649L 32.401 12.982L 32.401 16.949L 16.584 16.949L 16.584 12.304L 24.263 12.304L 16.584 3.971L 16.584 1.71661e-08L 32.106 1.71661e-08L 32.106 4.649L 32.106 4.649ZM 13.632 4.839L 5.664 4.839L 5.664 12.11L 13.632 12.11L 13.632 16.949L 6.71387e-07 16.949L 6.71387e-07 1.71661e-08L 13.632 1.71661e-08L 13.632 4.839L 13.632 4.839Z"/>
<path id="path1_fill" d="M 8.097 90.813L 7.47681e-07 -3.50952e-07L 88.967 -3.50952e-07L 80.863 90.798L 44.429 100.9L 8.097 90.813L 8.097 90.813Z"/>
<path id="path2_fill" d="M -5.49316e-07 85.753L 29.439 77.591L 36.365 2.44141e-07L -5.49316e-07 2.44141e-07L -5.49316e-07 85.753Z"/>
<path id="path3_fill" d="M 0 22.543L 14.738 22.543L 15.757 11.138L 0 11.138L 0 -1.86157e-06L 27.929 -1.86157e-06L 27.662 2.988L 24.925 33.68L 0 33.68L 0 22.543L 0 22.543Z"/>
<path id="path4_fill" d="M 24.426 12.219L 24.377 12.233L 11.973 8.883L 11.179 1.95313e-06L -1.15967e-06 1.95313e-06L 1.561 17.488L 24.375 23.821L 24.427 23.806L 24.427 12.219L 24.426 12.219Z"/>
<path id="path5_fill" d="M 13.764 1.58691e-06L 12.422 14.916L -1.2207e-07 18.269L -1.2207e-07 29.857L 22.833 23.529L 23.001 21.647L 24.939 1.58691e-06L 13.764 1.58691e-06L 13.764 1.58691e-06Z"/>
<path id="path6_fill" d="M 27.901 -1.86157e-06L 27.901 11.137L 0.998002 11.137L 0.773999 8.634L 0.266999 2.988L 4.88281e-07 -1.86157e-06L 27.901 -1.86157e-06ZM 27.862 22.544L 27.862 33.682L 15.615 33.682L 15.392 31.179L 14.884 25.532L 14.617 22.544L 27.862 22.544L 27.862 22.544Z"/>
</defs>
</svg>
