<svg width="267" height="375" viewBox="0 0 267 375" version="1.1" xmlns="http://www.w3.org/2000/svg" xmlns:xlink="http://www.w3.org/1999/xlink" xmlns:figma="http://www.figma.com/figma/ns">
<title>html</title>
<desc>Created using Figma</desc>
<g id="Canvas" transform="matrix(3 0 0 3 -14169 -1668)" figma:type="canvas">
<g id="html" figma:type="frame">
<g id="Vector" figma:type="vector">
<use xlink:href="#path0_fill" transform="translate(4723 580.516)" fill="#E44D26"/>
</g>
<g id="Vector" figma:type="vector">
<use xlink:href="#path1_fill" transform="translate(4767.19 587.893)" fill="#F16529"/>
</g>
<g id="Vector" figma:type="vector">
<use xlink:href="#path2_fill" transform="translate(4739.45 598.956)" fill="#EBEBEB"/>
</g>
<g id="Vector" figma:type="vector">
<use xlink:href="#path3_fill" transform="translate(4731.22 556)"/>
</g>
<g id="Vector" figma:type="vector">
<use xlink:href="#path4_fill" transform="translate(4767.15 598.956)" fill="#FFFFFF"/>
</g>
</g>
</g>
<defs>
<path id="path0_fill" d="M 8.043 90.211L 8.23975e-07 -3.50952e-07L 88.378 -3.50952e-07L 80.327 90.197L 44.135 100.23L 8.043 90.211Z"/>
<path id="path1_fill" d="M 0 85.184L 29.244 77.076L 36.125 4.57764e-07L 0 4.57764e-07L 0 85.184Z"/>
<path id="path2_fill" d="M 27.743 22.395L 13.102 22.395L 12.092 11.064L 27.743 11.064L 27.743 1.83105e-07L -3.05176e-08 1.83105e-07L 0.264 2.969L 2.984 33.458L 27.743 33.458L 27.743 22.395ZM 27.743 51.128L 27.694 51.141L 15.373 47.813L 14.585 38.99L 3.478 38.99L 5.028 56.362L 27.692 62.654L 27.743 62.639L 27.743 51.128Z"/>
<path id="path3_fill" d="M 3.96729e-07 -2.57492e-08L 5.622 -2.57492e-08L 5.622 5.556L 10.766 5.556L 10.766 -2.57492e-08L 16.389 -2.57492e-08L 16.389 16.822L 10.766 16.822L 10.766 11.189L 5.623 11.189L 5.623 16.822L 3.96729e-07 16.822L 3.96729e-07 -2.57492e-08L 3.96729e-07 -2.57492e-08ZM 23.782 5.579L 18.832 5.579L 18.832 -2.57492e-08L 34.357 -2.57492e-08L 34.357 5.579L 29.405 5.579L 29.405 16.822L 23.782 16.822L 23.782 5.579L 23.782 5.579ZM 36.821 -2.57492e-08L 42.683 -2.57492e-08L 46.29 5.911L 49.893 -2.57492e-08L 55.758 -2.57492e-08L 55.758 16.822L 50.157 16.822L 50.157 8.484L 46.29 14.465L 46.192 14.465L 42.322 8.484L 42.322 16.822L 36.82 16.822L 36.82 -2.57492e-08L 36.821 -2.57492e-08ZM 58.557 -2.57492e-08L 64.181 -2.57492e-08L 64.181 11.262L 72.088 11.262L 72.088 16.823L 58.557 16.823L 58.557 -2.57492e-08L 58.557 -2.57492e-08Z"/>
<path id="path4_fill" d="M 1.80054e-06 22.395L 1.80054e-06 33.458L 13.624 33.458L 12.34 47.807L 1.80054e-06 51.138L 1.80054e-06 62.648L 22.682 56.362L 22.848 54.492L 25.448 25.365L 25.718 22.395L 22.736 22.395L 1.80054e-06 22.395ZM 1.80054e-06 1.83105e-07L 1.80054e-06 11.064L 26.725 11.064L 26.946 8.577L 27.451 2.969L 27.716 1.83105e-07L 1.80054e-06 1.83105e-07Z"/>
</defs>
</svg>
