<svg width="327" height="375" viewBox="0 0 327 375" version="1.1" xmlns="http://www.w3.org/2000/svg" xmlns:xlink="http://www.w3.org/1999/xlink" xmlns:figma="http://www.figma.com/figma/ns">
<title>bootstrap</title>
<desc>Created using Figma</desc>
<g id="Canvas" transform="matrix(3 0 0 3 -14052 -7041)" figma:type="canvas">
<g id="bootstrap" figma:type="frame">
<g id="Vector" figma:type="vector">
<use xlink:href="#path0_fill" transform="translate(4684 2347)" fill="#5B4282"/>
</g>
</g>
</g>
<defs>
<path id="path0_fill" d="M 1.37329e-07 110.586L 4.161 110.586C 6.057 110.586 7.434 110.856 8.29 111.396C 9.147 111.936 9.575 112.794 9.575 113.971C 9.575 114.77 9.387 115.425 9.012 115.937C 8.637 116.449 8.138 116.757 7.516 116.861L 7.516 116.952C 8.364 117.141 8.975 117.495 9.35 118.013C 9.725 118.531 9.913 119.22 9.913 120.08C 9.913 121.3 9.473 122.251 8.591 122.934C 7.71 123.617 6.513 123.958 5.001 123.958L 1.37329e-07 123.958L 1.37329e-07 110.586L 1.37329e-07 110.586ZM 2.835 115.882L 4.481 115.882C 5.249 115.882 5.806 115.763 6.15 115.526C 6.495 115.288 6.667 114.895 6.667 114.346C 6.667 113.834 6.48 113.467 6.105 113.244C 5.73 113.021 5.137 112.91 4.326 112.91L 2.835 112.91L 2.835 115.882L 2.835 115.882ZM 2.835 118.132L 2.835 121.617L 4.683 121.617C 5.463 121.617 6.039 121.468 6.412 121.169C 6.785 120.87 6.97 120.413 6.97 119.797C 6.97 118.688 6.177 118.132 4.592 118.132L 2.835 118.132L 2.835 118.132ZM 24.721 117.254C 24.721 119.467 24.172 121.169 23.075 122.358C 21.978 123.547 20.405 124.142 18.356 124.142C 16.307 124.142 14.734 123.547 13.637 122.358C 12.539 121.169 11.991 119.462 11.991 117.236C 11.991 115.01 12.541 113.311 13.642 112.137C 14.743 110.963 16.32 110.376 18.375 110.376C 20.43 110.376 22.001 110.968 23.09 112.15C 24.177 113.333 24.721 115.035 24.721 117.254L 24.721 117.254ZM 14.963 117.254C 14.963 118.748 15.246 119.873 15.814 120.629C 16.381 121.385 17.228 121.763 18.356 121.763C 20.618 121.763 21.749 120.26 21.749 117.254C 21.749 114.242 20.624 112.736 18.374 112.736C 17.246 112.736 16.395 113.115 15.822 113.875C 15.249 114.635 14.963 115.76 14.963 117.254L 14.963 117.254ZM 39.63 117.254C 39.63 119.467 39.081 121.169 37.984 122.358C 36.887 123.547 35.314 124.142 33.265 124.142C 31.216 124.142 29.643 123.547 28.546 122.358C 27.448 121.169 26.9 119.462 26.9 117.236C 26.9 115.01 27.45 113.311 28.551 112.137C 29.652 110.963 31.229 110.376 33.284 110.376C 35.339 110.376 36.91 110.968 37.999 112.15C 39.085 113.333 39.63 115.035 39.63 117.254ZM 29.871 117.254C 29.871 118.748 30.154 119.873 30.722 120.629C 31.289 121.385 32.136 121.763 33.264 121.763C 35.526 121.763 36.657 120.26 36.657 117.254C 36.657 114.242 35.532 112.736 33.282 112.736C 32.154 112.736 31.303 113.115 30.73 113.875C 30.157 114.635 29.871 115.76 29.871 117.254ZM 47.559 123.958L 44.724 123.958L 44.724 112.946L 41.093 112.946L 41.093 110.586L 51.19 110.586L 51.19 112.946L 47.559 112.946L 47.559 123.958ZM 61.14 120.245C 61.14 121.453 60.706 122.404 59.837 123.099C 58.968 123.794 57.759 124.142 56.211 124.142C 54.784 124.142 53.522 123.873 52.425 123.337L 52.425 120.703C 53.327 121.105 54.091 121.389 54.716 121.554C 55.341 121.719 55.912 121.801 56.431 121.801C 57.053 121.801 57.53 121.682 57.862 121.445C 58.195 121.207 58.361 120.854 58.361 120.384C 58.361 120.122 58.288 119.889 58.142 119.684C 57.996 119.48 57.781 119.283 57.497 119.094C 57.213 118.905 56.636 118.603 55.764 118.189C 54.947 117.805 54.334 117.436 53.926 117.082C 53.517 116.728 53.191 116.317 52.947 115.848C 52.703 115.378 52.581 114.829 52.581 114.202C 52.581 113.019 52.982 112.089 53.784 111.412C 54.586 110.735 55.694 110.397 57.109 110.397C 57.804 110.397 58.467 110.479 59.098 110.644C 59.729 110.809 60.389 111.04 61.078 111.339L 60.163 113.543C 59.45 113.251 58.86 113.046 58.393 112.93C 57.926 112.814 57.468 112.756 57.017 112.756C 56.48 112.756 56.069 112.881 55.782 113.131C 55.495 113.381 55.352 113.707 55.352 114.11C 55.352 114.36 55.41 114.578 55.526 114.764C 55.642 114.95 55.826 115.13 56.079 115.304C 56.332 115.478 56.931 115.79 57.876 116.242C 59.126 116.84 59.983 117.439 60.446 118.039C 60.909 118.639 61.14 119.373 61.14 120.245L 61.14 120.245ZM 68.723 123.958L 65.888 123.958L 65.888 112.946L 62.257 112.946L 62.257 110.586L 72.354 110.586L 72.354 112.946L 68.723 112.946L 68.723 123.958ZM 77.247 118.827L 77.247 123.958L 74.412 123.958L 74.412 110.586L 78.308 110.586C 80.125 110.586 81.469 110.917 82.341 111.578C 83.213 112.24 83.649 113.245 83.649 114.592C 83.649 115.379 83.433 116.078 83 116.691C 82.567 117.304 81.954 117.784 81.162 118.131C 83.174 121.137 84.485 123.079 85.095 123.957L 81.949 123.957L 78.757 118.826L 77.247 118.826L 77.247 118.827ZM 77.247 116.522L 78.162 116.522C 79.058 116.522 79.72 116.373 80.147 116.074C 80.574 115.775 80.787 115.305 80.787 114.665C 80.787 114.031 80.569 113.58 80.133 113.311C 79.697 113.043 79.022 112.909 78.107 112.909L 77.247 112.909L 77.247 116.522L 77.247 116.522ZM 94.963 123.958L 93.993 120.775L 89.118 120.775L 88.148 123.958L 85.093 123.958L 89.812 110.532L 93.278 110.532L 98.016 123.958L 94.963 123.958L 94.963 123.958ZM 93.316 118.397C 92.42 115.513 91.915 113.882 91.802 113.504C 91.689 113.126 91.609 112.827 91.56 112.608C 91.359 113.388 90.783 115.318 89.831 118.397L 93.316 118.397ZM 108.938 114.757C 108.938 116.196 108.488 117.297 107.589 118.058C 106.69 118.821 105.411 119.202 103.752 119.202L 102.536 119.202L 102.536 123.958L 99.701 123.958L 99.701 110.586L 103.972 110.586C 105.594 110.586 106.827 110.935 107.672 111.633C 108.516 112.332 108.938 113.373 108.938 114.757L 108.938 114.757ZM 102.536 116.879L 103.469 116.879C 104.341 116.879 104.993 116.707 105.426 116.362C 105.859 116.017 106.075 115.516 106.075 114.858C 106.075 114.193 105.893 113.702 105.531 113.385C 105.168 113.068 104.599 112.909 103.825 112.909L 102.535 112.909L 102.535 116.879L 102.536 116.879ZM 64.42 54.759C 62.437 54.106 59.582 54 55.855 54L 42.469 54L 42.469 74L 56.893 74C 59.395 74 61.152 73.751 62.164 73.563C 63.947 73.245 65.438 72.633 66.636 71.887C 67.834 71.143 68.819 70.018 69.591 68.594C 70.362 67.17 70.749 65.507 70.749 63.643C 70.749 61.459 70.19 59.663 69.072 58.053C 67.955 56.442 66.404 55.411 64.42 54.759ZM 62.364 46.147C 64.334 45.561 65.819 44.501 66.816 43.144C 67.815 41.787 68.314 40.041 68.314 37.99C 68.314 36.047 67.848 34.315 66.916 32.836C 65.984 31.358 64.653 30.355 62.924 29.809C 61.192 29.265 58.224 29 54.018 29L 42.469 29L 42.469 47L 54.976 47C 58.411 47 60.873 46.601 62.364 46.147L 62.364 46.147ZM 107.469 14.126C 107.469 6.324 101.144 -1.77636e-15 93.342 -1.77636e-15L 15.596 -1.77636e-15C 7.794 -1.77636e-15 1.469 6.324 1.469 14.126L 1.469 91.874C 1.469 99.676 7.794 106 15.596 106L 93.342 106C 101.144 106 107.469 99.676 107.469 91.874L 107.469 14.126L 107.469 14.126ZM 77.039 71.27C 75.882 73.626 74.45 75.443 72.747 76.721C 71.043 77.998 68.906 79.167 66.337 79.819C 63.768 80.472 60.62 81 56.893 81L 34.469 81L 34.469 22L 56.534 22C 61.007 22 64.593 22.62 67.295 23.804C 69.998 24.989 72.113 26.825 73.646 29.287C 75.176 31.75 75.942 34.333 75.942 37.022C 75.942 39.524 75.262 41.883 73.906 44.093C 72.548 46.303 70.498 48.088 67.756 49.445C 71.296 50.483 74.019 52.256 75.922 54.758C 77.825 57.261 78.777 60.216 78.777 63.624C 78.776 66.366 78.198 68.915 77.039 71.27L 77.039 71.27Z"/>
</defs>
</svg>
