<svg width="267" height="375" viewBox="0 0 267 375" version="1.1" xmlns="http://www.w3.org/2000/svg" xmlns:xlink="http://www.w3.org/1999/xlink" xmlns:figma="http://www.figma.com/figma/ns">
<title>html 2</title>
<desc>Created using Figma</desc>
<g id="Canvas" transform="matrix(3 0 0 3 42540 -11694)" figma:type="canvas">
<g id="html 2" figma:type="frame">
<g id="Vector" figma:type="vector">
<use xlink:href="#path0_fill" transform="translate(-14180 3898)" fill="#E44D26"/>
</g>
</g>
</g>
<defs>
<path id="path0_fill" d="M 2.44141e-07 25.373L 8.087 115.292L 44.376 124.974L 80.766 115.475L 88.862 25.373L 2.44141e-07 25.373L 2.44141e-07 25.373ZM 72.041 45.844L 71.534 51.678L 71.311 54.373L 28.742 54.373L 29.759 66.373L 70.299 66.373L 70.028 68.604L 67.413 97.513L 67.221 99.203L 44.431 105.337L 44.431 105.332L 44.404 105.344L 21.627 99.428L 20.081 82.373L 31.249 82.373L 32.04 90.833L 44.425 93.972L 44.431 93.738L 44.431 93.75L 56.843 91.101L 58.139 77.373L 19.584 77.373L 16.85 46.537L 16.583 43.373L 72.307 43.373L 72.041 45.844L 72.041 45.844ZM 8.387 -2.57492e-08L 14.009 -2.57492e-08L 14.009 5.556L 19.153 5.556L 19.153 -2.57492e-08L 24.776 -2.57492e-08L 24.776 16.822L 19.153 16.822L 19.153 11.189L 14.01 11.189L 14.01 16.822L 8.387 16.822L 8.387 -2.57492e-08L 8.387 -2.57492e-08ZM 32.169 5.579L 27.219 5.579L 27.219 -2.57492e-08L 42.744 -2.57492e-08L 42.744 5.579L 37.792 5.579L 37.792 16.822L 32.169 16.822L 32.169 5.579L 32.169 5.579ZM 45.208 -2.57492e-08L 51.07 -2.57492e-08L 54.677 5.911L 58.28 -2.57492e-08L 64.145 -2.57492e-08L 64.145 16.822L 58.544 16.822L 58.544 8.484L 54.677 14.465L 54.579 14.465L 50.709 8.484L 50.709 16.822L 45.207 16.822L 45.207 -2.57492e-08L 45.208 -2.57492e-08ZM 66.944 -2.57492e-08L 72.568 -2.57492e-08L 72.568 11.262L 80.475 11.262L 80.475 16.823L 66.944 16.823L 66.944 -2.57492e-08L 66.944 -2.57492e-08Z"/>
</defs>
</svg>
