<svg width="306" height="375" viewBox="0 0 306 375" version="1.1" xmlns="http://www.w3.org/2000/svg" xmlns:xlink="http://www.w3.org/1999/xlink" xmlns:figma="http://www.figma.com/figma/ns">
<title>react</title>
<desc>Created using Figma</desc>
<g id="Canvas" transform="matrix(3 0 0 3 -14868 -6984)" figma:type="canvas">
<g id="react" figma:type="frame">
<g id="Group" figma:type="frame">
<g id="Vector" figma:type="vector">
<use xlink:href="#path0_fill" transform="translate(4997.6 2364.1)" fill="#61DAFB"/>
</g>
<g id="Vector" figma:type="vector">
<use xlink:href="#path1_fill" transform="translate(4956 2328)" fill="#61DAFB"/>
</g>
</g>
</g>
</g>
<defs>
<path id="path0_fill" d="M 9.3 18.6C 14.4362 18.6 18.6 14.4362 18.6 9.3C 18.6 4.16375 14.4362 0 9.3 0C 4.16375 0 0 4.16375 0 9.3C 0 14.4362 4.16375 18.6 9.3 18.6Z"/>
<path id="path1_fill" d="M 50.9 79.6C 58.2 86.7 65.4 90.9 71.2 90.9C 73.1 90.9 74.9 90.5 76.4 89.6C 81.6 86.6 83.5 79.1 81.7 68.4C 81.4 66.5 81 64.6 80.5 62.6C 82.5 62 84.3 61.4 86.1 60.8C 96.2 56.9 101.8 51.5 101.8 45.6C 101.8 39.6 96.2 34.2 86.1 30.4C 84.3 29.7 82.5 29.1 80.5 28.6C 81 26.6 81.4 24.7 81.7 22.8C 83.4 11.9 81.5 4.3 76.3 1.3C 74.8 0.4 73 -9.53674e-08 71.1 -9.53674e-08C 65.4 -9.53674e-08 58.1 4.2 50.8 11.3C 43.6 4.2 36.4 -9.53674e-08 30.6 -9.53674e-08C 28.7 -9.53674e-08 26.9 0.4 25.4 1.3C 20.2 4.3 18.3 11.8 20.1 22.5C 20.4 24.4 20.8 26.3 21.3 28.3C 19.3 28.9 17.5 29.5 15.7 30.1C 5.6 34 3.8147e-07 39.4 3.8147e-07 45.3C 3.8147e-07 51.3 5.6 56.7 15.7 60.5C 17.5 61.2 19.3 61.8 21.3 62.3C 20.8 64.3 20.4 66.2 20.1 68.1C 18.4 78.8 20.3 86.4 25.4 89.3C 26.9 90.2 28.7 90.6 30.6 90.6C 36.4 90.8 43.6 86.6 50.9 79.6L 50.9 79.6ZM 45.3 66.1C 47.1 66.2 49 66.2 50.9 66.2C 52.8 66.2 54.7 66.2 56.5 66.1C 54.7 68.5 52.8 70.7 50.9 72.8C 49 70.7 47.1 68.5 45.3 66.1L 45.3 66.1ZM 32.9 55.8C 33.9 57.5 34.8 59.1 35.9 60.7C 32.8 60.3 29.9 59.8 27.1 59.2C 28 56.5 29 53.7 30.2 50.9C 31 52.5 31.9 54.2 32.9 55.8L 32.9 55.8ZM 27.1 31.7C 29.9 31.1 32.8 30.6 35.9 30.2C 34.9 31.8 33.9 33.4 32.9 35.1C 31.9 36.8 31 38.4 30.2 40.1C 28.9 37.2 27.9 34.4 27.1 31.7L 27.1 31.7ZM 32.6 45.4C 33.9 42.7 35.3 40 36.9 37.3C 38.4 34.7 40.1 32.1 41.8 29.5C 44.8 29.3 47.8 29.2 50.9 29.2C 54.1 29.2 57.1 29.3 60 29.5C 61.8 32.1 63.4 34.7 64.9 37.3C 66.5 40 67.9 42.7 69.2 45.4C 67.9 48.1 66.5 50.8 64.9 53.5C 63.4 56.1 61.7 58.7 60 61.3C 57 61.5 54 61.6 50.9 61.6C 47.7 61.6 44.7 61.5 41.8 61.3C 40 58.7 38.4 56.1 36.9 53.5C 35.3 50.8 33.9 48.1 32.6 45.4L 32.6 45.4ZM 71.7 40L 69 35C 68 33.3 67.1 31.7 66 30.1C 69.1 30.5 72 31 74.8 31.6C 73.9 34.4 72.9 37.2 71.7 40ZM 71.7 50.8C 72.9 53.6 73.9 56.4 74.8 59.1C 72 59.7 69.1 60.2 66 60.6C 67 59 68 57.4 69 55.7C 69.9 54.2 70.8 52.5 71.7 50.8ZM 74 85.5C 73.2 86 72.2 86.2 71.1 86.2C 66.2 86.2 60.1 82.2 54.1 76.2C 57 73.1 59.8 69.6 62.6 65.7C 67.3 65.3 71.8 64.6 76 63.6C 76.5 65.4 76.8 67.2 77.1 69C 78.5 77.5 77.4 83.6 74 85.5L 74 85.5ZM 79.2 32.8C 90.4 36 97.1 40.9 97.1 45.4C 97.1 49.3 92.5 53.2 84.4 56.3C 82.8 56.9 81 57.5 79.2 58C 77.9 53.9 76.3 49.7 74.3 45.4C 76.3 41.1 78 36.9 79.2 32.8ZM 71.2 4.6C 72.3 4.6 73.2 4.8 74.1 5.3C 77.4 7.2 78.6 13.2 77.2 21.8C 76.9 23.5 76.5 25.3 76.1 27.2C 71.9 26.3 67.4 25.6 62.7 25.1C 60 21.2 57.1 17.7 54.2 14.6C 60.2 8.7 66.3 4.6 71.2 4.6L 71.2 4.6ZM 56.5 24.7C 54.7 24.6 52.8 24.6 50.9 24.6C 49 24.6 47.1 24.6 45.3 24.7C 47.1 22.3 49 20.1 50.9 18C 52.8 20.1 54.7 22.4 56.5 24.7ZM 27.8 5.3C 28.6 4.8 29.6 4.6 30.7 4.6C 35.6 4.6 41.7 8.6 47.7 14.6C 44.8 17.7 42 21.2 39.2 25.1C 34.5 25.5 30 26.2 25.8 27.2C 25.3 25.4 25 23.6 24.7 21.8C 23.3 13.3 24.4 7.3 27.8 5.3L 27.8 5.3ZM 22.6 58C 11.4 54.8 4.7 49.9 4.7 45.4C 4.7 41.5 9.3 37.6 17.4 34.5C 19 33.9 20.8 33.3 22.6 32.8C 23.9 36.9 25.5 41.1 27.5 45.4C 25.5 49.7 23.8 54 22.6 58ZM 24.7 69C 25 67.3 25.4 65.5 25.8 63.6C 30 64.5 34.5 65.2 39.2 65.7C 41.9 69.6 44.8 73.1 47.7 76.2C 41.7 82.1 35.6 86.2 30.7 86.2C 29.6 86.2 28.7 86 27.8 85.5C 24.4 83.6 23.3 77.5 24.7 69L 24.7 69ZM 20.5 110.2C 22.7 107.5 22.8 104.5 21.6 101.5C 20.4 98.5 17.9 97.1 14.8 97C 11.1 96.9 7.3 97 3.6 97L 2.9 97L 2.9 122.9L 5.9 122.9L 5.9 113.1L 10.6 113.1C 11.2 113.1 11.7 113.3 12 113.8L 18 123.1C 18.1 123.3 18.4 123.6 18.6 123.6L 22.5 123.6C 20.1 119.9 17.8 116.4 15.4 112.8C 17.5 112.5 19.3 111.8 20.5 110.2L 20.5 110.2ZM 5.9 110L 5.9 100.1L 7 100.1C 9.3 100.1 11.7 100 14 100.2C 16.7 100.3 18.6 102.4 18.6 105.1C 18.6 107.8 16.4 109.9 13.7 110C 11.3 110.1 8.9 110 5.9 110L 5.9 110ZM 44.6 111.3C 43 104.3 36.6 102.5 31.7 104.7C 27.9 106.4 26.2 109.7 26.1 113.8C 26 116.9 26.9 119.7 29.3 121.8C 32 124.2 35.3 124.5 38.7 123.9C 40.6 123.5 42.3 122.6 43.6 121.2C 43.1 120.5 42.6 119.8 42.1 119.2C 39.3 121.6 36.2 122.4 32.8 120.8C 30.6 119.7 29.5 117 29.3 115L 44.8 115L 44.8 113.7C 44.9 112.8 44.8 112 44.6 111.3L 44.6 111.3ZM 29.5 112.9C 29.2 109.9 32.2 106.7 35.5 106.7C 39.3 106.6 41.7 108.9 41.8 112.9L 29.5 112.9L 29.5 112.9ZM 60.2 104.2C 58.7 103.9 57.1 103.8 55.6 103.9C 53.2 104.1 51.1 105.2 49.4 107C 49.9 107.7 50.3 108.4 50.9 109.2C 51.1 109 51.3 108.8 51.5 108.7C 53.1 107.2 55 106.4 57.3 106.6C 59.1 106.7 60.8 107.3 61.3 109.1C 61.7 110.5 61.6 112 61.7 113.5C 61.4 113.5 61.3 113.4 61.2 113.3C 58.8 111.3 56.1 110.9 53.2 111.6C 50.5 112.3 48.8 114.4 48.6 117.1C 48.4 120.2 49.8 122.5 52.5 123.6C 54.2 124.3 56.1 124.3 57.9 123.9C 59.3 123.6 59.9 122.8 61.9 121.7L 61.9 123L 64.7 123C 64.7 119 64.8 114.1 64.7 109.5C 64.7 106.6 63 104.8 60.2 104.2ZM 61.6 116.8C 61.5 117.1 61.6 117.4 61.6 117.7C 61.6 119.8 61.1 120.5 59.1 121.3C 57.7 121.8 56.2 122 54.7 121.5C 53 121 51.8 119.5 51.8 117.8C 51.7 116.1 52.8 114.4 54.5 113.9C 56.8 113.1 58.9 113.6 60.8 115C 61.4 115.5 61.8 116 61.6 116.8L 61.6 116.8ZM 77.2 106.9C 79.8 106.1 82.2 106.6 84 108.8L 84.3 109C 85 108.4 85.6 107.8 86.4 107.1C 86.1 106.8 86 106.6 85.8 106.3C 82.9 103.2 77.2 102.8 73.7 105.3C 68.8 108.9 68.9 115.9 71.3 119.6C 73.6 123.1 76.9 124.3 80.8 123.8C 83.1 123.5 85 122.4 86.5 120.5C 85.8 119.9 85.1 119.3 84.4 118.6C 84.2 118.8 84.1 118.9 84 119.1C 81.3 122.1 76.8 121.8 74.4 118.6C 73 116.7 72.7 114.5 73.1 112.3C 73.3 109.8 74.6 107.8 77.2 106.9ZM 98 120.5C 97.8 120.6 97.7 120.7 97.7 120.7C 96.9 121.3 96.1 121.4 95.2 121.1C 94.3 120.7 94.2 119.9 94.1 119.1L 94.1 107.7C 94.1 107.5 94.1 107.9 94.2 106.9L 98 106.9L 98 103.9L 94 103.9L 94 98.9L 91 98.9L 91 104.3L 88.4 104.3C 88.2 104.3 87.9 104.5 87.9 104.7C 87.8 105.4 87.9 105.9 87.9 106.9L 91.1 106.9L 91.1 119.7C 91.1 121.3 91.5 122.7 92.9 123.5C 94.4 124.4 97.3 124.2 98.6 123.1C 98.8 123 98.9 122.6 98.9 122.5C 98.6 121.9 98.3 121.2 98 120.5L 98 120.5Z"/>
</defs>
</svg>
