<svg width="1413" height="1416" viewBox="0 0 1413 1416" version="1.1" xmlns="http://www.w3.org/2000/svg" xmlns:xlink="http://www.w3.org/1999/xlink" xmlns:figma="http://www.figma.com/figma/ns">
<title>instagram copy</title>
<desc>Created using Figma</desc>
<g id="Canvas" transform="matrix(3 0 0 3 -27921 8568)" figma:type="canvas">
<g id="instagram copy" filter="url(#filter0_d)" figma:type="frame">
<g id="g6" figma:type="frame">
<g id="path10" figma:type="vector">
<use xlink:href="#path0_fill" transform="matrix(0.0188025 0 0 -0.0187746 9327 -2697.15)" fill="#737373"/>
</g>
<g id="path12" figma:type="vector">
<use xlink:href="#path1_fill" transform="matrix(0.0188025 0 0 -0.0187746 9456.63 -2536)" fill="#737373"/>
</g>
<g id="path14" figma:type="vector">
<use xlink:href="#path2_fill" transform="matrix(0.0188025 0 0 -0.0187746 9327.1 -2408)" fill="#737373"/>
</g>
</g>
</g>
</g>
<defs>
<filter id="filter0_d" filterUnits="userSpaceOnUse" x="9307" y="-2856" width="472" height="472" color-interpolation-filters="sRGB">
<feFlood flood-opacity="0" result="BackgroundImageFix"/>
<desc>type="dropShadow" x="0" y="4" size="20" spread="0" color="0,0,0,0.25" blend="normal"</desc>
<feColorMatrix in="SourceAlpha" type="matrix" values="0 0 0 0 0 0 0 0 0 0 0 0 0 0 0 0 0 0 255 0"/>
<feOffset dx="0" dy="4"/>
<feGaussianBlur stdDeviation="10"/>
<feColorMatrix type="matrix" values="0 0 0 0 0 0 0 0 0 0 0 0 0 0 0 0 0 0 0.25 0"/>
<feBlend mode="normal" in2="BackgroundImageFix" result="effect1_dropShadow"/>
<feBlend mode="normal" in="SourceGraphic" in2="effect1_dropShadow" result="shape"/>
</filter>
<path id="path0_fill" d="M 4380.44 4789.54L 4363.8 1970.2L 4097.65 1953.55C 3947.94 1942.45 3792.68 1964.65 3748.33 2003.5C 3681.79 2059 3670.7 2502.99 3670.7 4778.44C 3670.7 7858.62 3726.15 7564.47 3171.66 7392.43L 2866.69 7292.53L 2838.97 4634.14L 2811.24 1970.2L 2517.37 1953.55C 2345.48 1942.45 2184.67 1964.65 2140.32 2003.5C 2073.78 2059 2062.69 2458.59 2062.69 4417.7C 2062.69 6582.15 2057.14 6770.84 1968.43 6770.84C 1918.52 6770.84 1635.73 6526.65 1336.31 6226.95C 859.453 5744.12 765.191 5610.92 521.217 5100.33C 55.4486 4145.75 49.9037 4123.55 27.7243 1931.35L 0 0L 3720.6 0C 5766.65 0 7441.2 22.1995 7441.2 44.399C 7441.2 116.547 8101.04 638.235 8500.27 876.88C 8982.67 1171.02 9542.7 1404.12 10136 1559.51C 10862.4 1748.21 12021.3 1742.66 12769.8 1542.86C 13657 1304.22 14527.5 854.68 15187.4 294.143L 15531.2 0L 19224 0L 22922.4 0L 22900.3 1959.1C 22878.1 3785.01 22867 3940.41 22750.6 4328.9C 22517.7 5116.98 22234.9 5572.07 21558.4 6249.15C 20881.9 6920.69 20432.8 7203.73 19639.9 7447.93L 19224 7575.57L 12586.8 7592.22L 5944.09 7608.87L 5933 4789.54L 5916.37 1970.2L 5650.21 1953.55C 5500.5 1942.45 5345.24 1964.65 5300.89 2003.5C 5234.35 2059 5223.26 2508.54 5223.26 4833.94L 5223.26 7603.32L 4807.39 7603.32L 4391.53 7603.32L 4380.44 4789.54ZM 20305.3 5466.62C 20399.5 5416.67 20521.5 5283.48 20582.5 5161.38C 20682.3 4961.58 20693.4 4833.94 20693.4 3624.07C 20693.4 1714.91 20754.4 1775.96 18869.2 1775.96C 17438.6 1775.96 17266.7 1814.81 17083.7 2175.55C 16978.4 2380.89 16972.8 2480.79 16989.4 3779.46L 17006.1 5172.48L 17211.2 5361.17L 17421.9 5549.87L 18780.4 5549.87C 19895 5549.87 20172.2 5533.22 20305.3 5466.62Z"/>
<path id="path1_fill" d="M 3901.36 9099.26C 1949.57 8827.32 363.736 7262.26 47.6795 5292.05C -46.5832 4720.42 3.32058 3793.59 158.577 3255.25C 374.826 2494.92 668.704 2017.63 1323 1368.3C 1971.75 713.411 2393.16 441.467 3052.99 230.572C 5647.99 -590.809 8309.52 852.157 8980.45 3449.5C 9130.16 4026.68 9141.25 5114.46 9008.17 5641.7C 8764.2 6590.72 8464.78 7106.86 7727.31 7833.89C 7012.02 8549.83 6396.54 8871.72 5437.28 9060.42C 5054.69 9132.56 4289.5 9154.76 3901.36 9099.26ZM 5121.23 7722.9C 5553.72 7634.1 6418.72 7223.41 6673.79 6984.76C 7122.92 6568.52 7488.88 5969.14 7677.41 5330.9C 7816.03 4875.81 7799.39 4121.03 7649.68 3643.74C 7228.27 2306.22 5952.95 1351.65 4594.46 1351.65C 4095.43 1351.65 3712.83 1451.54 3152.8 1717.94C 2071.55 2228.53 1361.81 3366.25 1361.81 4587.22C 1356.27 6080.14 2437.51 7395.45 3934.63 7717.35C 4400.39 7822.79 4649.91 7822.79 5121.23 7722.9Z"/>
<path id="path2_fill" d="M 16.6346 9257.18L 33.2692 3662.91L 160.801 3246.67C 404.775 2453.04 687.563 2003.5 1358.49 1326.42C 2046.05 643.785 2506.28 360.742 3310.28 127.647L 3748.33 0L 11428 0L 19107.6 0L 19545.6 127.647C 20427.3 382.941 21042.7 765.882 21702.6 1470.72C 22162.8 1959.1 22539.9 2613.99 22750.6 3302.17L 22878.1 3718.41L 22894.7 9284.93L 22911.4 14845.9L 19495.7 14845.9C 16523.7 14845.9 16085.6 14834.8 16085.6 14762.7C 16085.6 14718.3 16174.4 14540.7 16285.3 14374.2C 17333.2 12725.9 17438.6 10611.4 16562.5 8857.59C 15664.2 7070.53 14011.9 5921.71 11999.1 5688.62C 10380 5499.92 8505.81 6199.21 7341.39 7431.28C 6875.63 7919.67 6615.02 8308.16 6271.24 9035.19C 5866.46 9873.22 5750.02 10417.1 5750.02 11405C 5750.02 12054.3 5772.2 12304.1 5872.01 12703.7C 6016.17 13286.4 6282.33 13919.1 6565.11 14363.1C 6676.01 14540.7 6770.27 14718.3 6770.27 14762.7C 6770.27 14834.8 6337.77 14845.9 3387.91 14845.9L 0 14845.9L 16.6346 9257.18Z"/>
</defs>
</svg>
