<svg width="1287" height="1290" viewBox="0 0 1287 1290" version="1.1" xmlns="http://www.w3.org/2000/svg" xmlns:xlink="http://www.w3.org/1999/xlink" xmlns:figma="http://www.figma.com/figma/ns">
<title>instagram</title>
<desc>Created using Figma</desc>
<g id="Canvas" transform="matrix(3 0 0 3 -29082 10731)" figma:type="canvas">
<g id="instagram" figma:type="frame">
<g id="g6" figma:type="frame">
<g id="path10" figma:type="vector">
<use xlink:href="#path0_fill" transform="matrix(0.0188025 0 0 -0.0187746 9694 -3434.81)"/>
</g>
<g id="path12" figma:type="vector">
<use xlink:href="#path1_fill" transform="matrix(0.0188025 0 0 -0.0187746 9823.03 -3274.41)"/>
</g>
<g id="path14" figma:type="vector">
<use xlink:href="#path2_fill" transform="matrix(0.0188025 0 0 -0.0187746 9694.1 -3147)"/>
</g>
</g>
</g>
</g>
<defs>
<path id="path0_fill" d="M 4360.11 4767.36L 4343.55 1961.08L 4078.64 1944.51C 3929.62 1933.46 3775.08 1955.56 3730.93 1994.23C 3664.7 2049.47 3653.66 2491.4 3653.66 4756.32C 3653.66 7822.23 3708.85 7529.45 3156.94 7358.2L 2853.39 7258.77L 2825.79 4612.69L 2798.2 1961.08L 2505.68 1944.51C 2334.59 1933.46 2174.54 1955.56 2130.38 1994.23C 2064.15 2049.47 2053.12 2447.21 2053.12 4397.24C 2053.12 6551.67 2047.6 6739.5 1959.29 6739.5C 1909.62 6739.5 1628.14 6496.43 1330.11 6198.13C 855.465 5717.52 761.64 5584.94 518.798 5076.72C 55.1913 4126.56 49.6722 4104.46 27.5956 1922.41L 0 0L 3703.34 0C 5739.89 0 7406.67 22.0967 7406.67 44.1934C 7406.67 116.008 8063.45 635.28 8460.83 872.82C 8940.99 1165.6 9498.42 1397.62 10089 1552.29C 10812 1740.12 11965.5 1734.59 12710.6 1535.72C 13593.6 1298.18 14460.1 850.723 15116.9 292.781L 15459.1 0L 19134.8 0L 22816.1 0L 22794 1950.03C 22771.9 3767.49 22760.9 3922.17 22645 4308.86C 22413.2 5093.29 22131.7 5546.27 21458.4 6220.22C 20785 6888.65 20338 7170.38 19548.8 7413.45L 19134.8 7540.5L 12528.4 7557.07L 5916.51 7573.65L 5905.47 4767.36L 5888.91 1961.08L 5623.99 1944.51C 5474.98 1933.46 5320.44 1955.56 5276.29 1994.23C 5210.06 2049.47 5199.02 2496.93 5199.02 4811.56L 5199.02 7568.12L 4785.09 7568.12L 4371.15 7568.12L 4360.11 4767.36ZM 20211.1 5441.31C 20304.9 5391.6 20426.3 5259.02 20487 5137.48C 20586.4 4938.61 20597.4 4811.56 20597.4 3607.29C 20597.4 1706.97 20658.1 1767.74 18781.6 1767.74C 17357.7 1767.74 17186.6 1806.41 17004.4 2165.48C 16899.6 2369.87 16894.1 2469.31 16910.6 3761.96L 16927.2 5148.53L 17131.4 5336.35L 17341.1 5524.18L 18693.3 5524.18C 19802.6 5524.18 20078.6 5507.6 20211.1 5441.31Z"/>
<path id="path1_fill" d="M 3883.25 9057.14C 1940.52 8786.45 362.049 7228.64 47.4582 5267.55C -46.367 4698.56 3.30517 3776.03 157.841 3240.18C 373.087 2483.37 665.601 2008.29 1316.86 1361.96C 1962.6 710.108 2382.05 439.423 3038.83 229.504C 5621.78 -588.074 8270.96 848.212 8938.78 3433.53C 9087.79 4008.04 9098.83 5090.78 8966.37 5615.58C 8723.53 6560.21 8425.5 7073.96 7691.45 7797.63C 6979.48 8510.24 6366.86 8830.65 5412.05 9018.47C 5031.23 9090.28 4269.59 9112.38 3883.25 9057.14ZM 5097.46 7687.14C 5527.95 7598.76 6388.94 7189.97 6642.82 6952.43C 7089.87 6538.11 7454.13 5941.5 7641.78 5306.22C 7779.76 4853.24 7763.2 4101.95 7614.18 3626.87C 7194.73 2295.55 5925.33 1345.39 4573.14 1345.39C 4076.42 1345.39 3695.6 1444.82 3138.17 1709.98C 2061.94 2218.21 1355.49 3350.66 1355.49 4565.98C 1349.97 6051.99 2426.2 7361.22 3916.37 7681.62C 4379.97 7786.58 4628.34 7786.58 5097.46 7687.14Z"/>
<path id="path2_fill" d="M 16.5574 9214.33L 33.1148 3645.96L 160.055 3231.64C 402.896 2441.69 684.372 1994.23 1352.19 1320.28C 2036.56 640.805 2494.65 359.071 3294.92 127.056L 3730.93 0L 11374.9 0L 19018.9 0L 19454.9 127.056C 20332.5 381.168 20945.1 762.336 21601.9 1463.91C 22060 1950.03 22435.3 2601.89 22645 3286.89L 22771.9 3701.2L 22788.5 9241.95L 22805 14777.2L 19405.3 14777.2C 16447 14777.2 16011 14766.1 16011 14694.3C 16011 14650.1 16099.3 14473.3 16209.7 14307.6C 17252.8 12666.9 17357.7 10562.2 16485.6 8816.59C 15591.5 7037.8 13946.8 5894.3 11943.4 5662.28C 10331.8 5474.46 8466.34 6170.51 7307.33 7396.87C 6843.72 7883 6584.32 8269.69 6242.14 8993.36C 5839.24 9827.51 5723.34 10368.9 5723.34 11352.2C 5723.34 11998.5 5745.41 12247.1 5844.76 12644.8C 5988.26 13224.9 6253.17 13854.6 6534.65 14296.6C 6645.03 14473.3 6738.86 14650.1 6738.86 14694.3C 6738.86 14766.1 6308.36 14777.2 3372.19 14777.2L 0 14777.2L 16.5574 9214.33Z"/>
</defs>
</svg>
