<svg width="1413" height="1413" viewBox="0 0 1413 1413" version="1.1" xmlns="http://www.w3.org/2000/svg" xmlns:xlink="http://www.w3.org/1999/xlink" xmlns:figma="http://www.figma.com/figma/ns">
<title>linkedin copy</title>
<desc>Created using Figma</desc>
<g id="Canvas" transform="matrix(3 0 0 3 -29217 8565)" figma:type="canvas">
<g id="linkedin copy" filter="url(#filter0_d)" figma:type="frame">
<g id="Group" figma:type="frame">
<g id="LinkedIn  x28 alt x29" figma:type="vector">
<use xlink:href="#path0_fill" transform="translate(9759 -2839)" fill="#737373"/>
</g>
</g>
</g>
</g>
<defs>
<filter id="filter0_d" filterUnits="userSpaceOnUse" x="9739" y="-2855" width="471" height="471" color-interpolation-filters="sRGB">
<feFlood flood-opacity="0" result="BackgroundImageFix"/>
<desc>type="dropShadow" x="0" y="4" size="20" spread="0" color="0,0,0,0.25" blend="normal"</desc>
<feColorMatrix in="SourceAlpha" type="matrix" values="0 0 0 0 0 0 0 0 0 0 0 0 0 0 0 0 0 0 255 0"/>
<feOffset dx="0" dy="4"/>
<feGaussianBlur stdDeviation="10"/>
<feColorMatrix type="matrix" values="0 0 0 0 0 0 0 0 0 0 0 0 0 0 0 0 0 0 0.25 0"/>
<feBlend mode="normal" in2="BackgroundImageFix" result="effect1_dropShadow"/>
<feBlend mode="normal" in="SourceGraphic" in2="effect1_dropShadow" result="shape"/>
</filter>
<path id="path0_fill" d="M 398.353 0L 31.78 0C 14.227 0 9.49949e-11 13.793 9.49949e-11 30.817L 9.49949e-11 399.288C 9.49949e-11 416.313 14.232 430.118 31.78 430.118L 398.353 430.118C 415.902 430.118 430.113 416.304 430.113 399.288L 430.113 30.817C 430.113 13.798 415.902 0 398.353 0ZM 130.398 360.038L 65.411 360.038L 65.411 165.845L 130.398 165.845L 130.398 360.038ZM 97.911 139.315L 97.474 139.315C 75.681 139.315 61.554 124.411 61.554 105.752C 61.554 86.717 76.096 72.217 98.321 72.217C 120.548 72.217 134.22 86.713 134.652 105.752C 134.652 124.415 120.553 139.315 97.911 139.315ZM 364.657 360.038L 299.691 360.038L 299.691 256.138C 299.691 230.031 290.278 212.217 266.784 212.217C 248.811 212.217 238.142 224.235 233.457 235.838C 231.721 239.982 231.291 245.778 231.291 251.566L 231.291 360.034L 166.337 360.034C 166.337 360.034 167.187 184.055 166.337 165.842L 231.301 165.842L 231.301 193.373C 239.925 180.144 255.336 161.273 289.835 161.273C 332.595 161.273 364.657 189.012 364.657 248.687L 364.657 360.038ZM 230.881 193.99C 230.992 193.808 231.147 193.589 231.301 193.376L 231.301 193.99L 230.881 193.99Z"/>
</defs>
</svg>
