<svg width="1413" height="1413" viewBox="0 0 1413 1413" version="1.1" xmlns="http://www.w3.org/2000/svg" xmlns:xlink="http://www.w3.org/1999/xlink" xmlns:figma="http://www.figma.com/figma/ns">
<title>skype copy</title>
<desc>Created using Figma</desc>
<g id="Canvas" transform="matrix(3 0 0 3 -30510 8565)" figma:type="canvas">
<g id="skype copy" filter="url(#filter0_d)" figma:type="frame">
<g id="Group" figma:type="frame">
<g id="Skype" figma:type="vector">
<use xlink:href="#path0_fill" transform="translate(10190 -2839)" fill="#737373"/>
</g>
</g>
</g>
</g>
<defs>
<filter id="filter0_d" filterUnits="userSpaceOnUse" x="10170" y="-2855" width="471" height="471" color-interpolation-filters="sRGB">
<feFlood flood-opacity="0" result="BackgroundImageFix"/>
<desc>type="dropShadow" x="0" y="4" size="20" spread="0" color="0,0,0,0.25" blend="normal"</desc>
<feColorMatrix in="SourceAlpha" type="matrix" values="0 0 0 0 0 0 0 0 0 0 0 0 0 0 0 0 0 0 255 0"/>
<feOffset dx="0" dy="4"/>
<feGaussianBlur stdDeviation="10"/>
<feColorMatrix type="matrix" values="0 0 0 0 0 0 0 0 0 0 0 0 0 0 0 0 0 0 0.25 0"/>
<feBlend mode="normal" in2="BackgroundImageFix" result="effect1_dropShadow"/>
<feBlend mode="normal" in="SourceGraphic" in2="effect1_dropShadow" result="shape"/>
</filter>
<path id="path0_fill" d="M 412.159 246.198C 413.764 236.043 414.609 225.654 414.609 215.05C 414.609 104.835 325.267 15.495 215.049 15.495C 204.473 15.495 194.054 16.366 183.908 17.953C 165.529 6.581 143.837 0 120.59 0C 53.991 0 -1.11759e-10 53.984 -1.11759e-10 120.59C -1.11759e-10 143.832 6.585 165.506 17.952 183.922C 16.379 194.094 15.513 204.45 15.513 215.054C 15.513 325.277 104.853 414.59 215.045 414.59C 225.63 414.59 236.052 413.774 246.197 412.173C 264.595 423.523 286.269 430.122 309.511 430.122C 376.128 430.122 430.113 376.124 430.113 309.52C 430.118 286.269 423.537 264.6 412.159 246.198ZM 309.796 305.81C 301.354 317.963 288.953 327.46 272.749 334.289C 256.512 341.136 237.321 344.543 215.159 344.543C 188.597 344.543 166.605 339.895 149.246 330.509C 136.941 323.788 126.933 314.772 119.239 303.529C 111.529 292.277 107.62 281.258 107.62 270.514C 107.62 264.176 110.037 258.664 114.742 254.17C 119.496 249.643 125.619 247.374 132.846 247.374C 138.766 247.374 143.851 249.157 147.991 252.69C 152.1 256.222 155.547 261.357 158.366 268.133C 161.745 275.983 165.415 282.545 169.32 287.781C 173.201 292.952 178.663 297.269 185.737 300.648C 192.733 304.036 202.044 305.73 213.695 305.73C 229.64 305.73 242.526 302.281 252.388 295.477C 262.3 288.611 267.061 280.257 267.061 270.163C 267.061 262.112 264.494 255.718 259.23 250.733C 253.918 245.683 247.058 241.837 238.545 239.154C 229.999 236.443 218.525 233.568 204.146 230.539C 184.838 226.325 168.69 221.42 155.613 215.787C 142.519 210.133 132.091 202.404 124.362 192.641C 116.617 182.782 112.755 170.528 112.755 156.014C 112.755 142.174 116.832 129.797 124.994 119.025C 133.152 108.223 144.955 99.955 160.345 94.196C 175.681 88.439 193.736 85.559 214.42 85.559C 230.961 85.559 245.269 87.473 257.38 91.281C 269.458 95.117 279.526 100.179 287.576 106.531C 295.575 112.869 301.461 119.554 305.189 126.569C 308.914 133.605 310.79 140.477 310.79 147.183C 310.79 153.418 308.373 159.073 303.663 164.029C 298.954 168.992 292.93 171.522 285.895 171.499C 279.553 171.499 274.578 170.036 271.128 166.939C 267.768 163.943 264.239 159.173 260.422 152.525C 255.597 143.249 249.818 136.022 243.098 130.853C 236.555 125.78 225.76 123.139 210.739 123.171C 196.841 123.171 185.721 126.011 177.328 131.565C 168.883 137.208 164.846 143.755 164.827 151.426C 164.841 156.233 166.223 160.286 169.004 163.752C 171.828 167.25 175.757 170.281 180.807 172.836C 185.859 175.431 190.998 177.438 196.162 178.882C 201.387 180.363 210.056 182.504 222.106 185.339C 237.218 188.596 250.925 192.235 263.242 196.201C 275.535 200.187 286.026 204.994 294.693 210.721C 303.429 216.431 310.257 223.711 315.131 232.504C 320.04 241.311 322.485 252.068 322.485 264.726C 322.504 279.968 318.258 293.676 309.796 305.81Z"/>
</defs>
</svg>
